<?xml version="1.0"?>
<!-- Generated by SVGo -->
<svg width="92.201mm" height="149.351mm"
     viewBox="0.000 0.000 92.201 149.351"
     xmlns="http://www.w3.org/2000/svg" 
     xmlns:xlink="http://www.w3.org/1999/xlink">
<polygon points="87.201,144.351 5.000,144.351 5.000,5.000 87.201,5.000" style="fill:none;stroke-width:0.050000mm;stroke:black"/>
<polygon points="20.050,124.824 20.050,125.824 19.250,125.824 19.250,128.924 20.050,128.924 20.050,129.524 18.525,129.524 18.525,126.294 11.775,126.294 11.775,129.524 10.950,129.524 10.950,132.325 11.775,132.325 11.775,138.595 13.500,138.595 13.500,139.795 16.800,139.795 16.800,138.595 18.525,138.595 18.525,134.125 20.050,134.125 20.050,134.725 19.250,134.725 19.250,137.825 20.050,137.825 20.050,138.825 34.050,138.825 34.050,137.825 34.850,137.825 34.850,134.725 34.050,134.725 34.050,134.125 35.575,134.125 35.575,138.595 37.300,138.595 37.300,139.795 40.600,139.795 40.600,138.595 42.325,138.595 42.325,132.325 43.150,132.325 43.150,129.524 42.325,129.524 42.325,126.294 35.575,126.294 35.575,129.524 34.050,129.524 34.050,128.924 34.850,128.924 34.850,125.824 34.050,125.824 34.050,124.824" style="fill:none;stroke-width:0.050000mm;stroke:black"/>
<polygon points="48.625,124.824 48.625,125.824 47.825,125.824 47.825,128.924 48.625,128.924 48.625,134.725 47.825,134.725 47.825,137.825 48.625,137.825 48.625,138.825 62.625,138.825 62.625,137.825 63.425,137.825 63.425,134.725 62.625,134.725 62.625,128.924 63.425,128.924 63.425,125.824 62.625,125.824 62.625,124.824" style="fill:none;stroke-width:0.050000mm;stroke:black"/>
<polygon points="74.175,106.199 74.175,107.024 67.905,107.024 67.905,108.750 66.705,108.750 66.705,112.050 67.905,112.050 67.905,113.774 72.375,113.774 72.375,115.300 71.774,115.300 71.774,114.500 68.675,114.500 68.675,115.300 67.675,115.300 67.675,129.300 68.675,129.300 68.675,130.100 71.774,130.100 71.774,129.300 72.375,129.300 72.375,130.824 67.905,130.824 67.905,132.550 66.705,132.550 66.705,135.850 67.905,135.850 67.905,137.575 74.175,137.575 74.175,138.400 76.975,138.400 76.975,137.575 80.205,137.575 80.205,130.824 76.975,130.824 76.975,129.300 77.575,129.300 77.575,130.100 80.675,130.100 80.675,129.300 81.675,129.300 81.675,115.300 80.675,115.300 80.675,114.500 77.575,114.500 77.575,115.300 76.975,115.300 76.975,113.774 80.205,113.774 80.205,107.024 76.975,107.024 76.975,106.199" style="fill:none;stroke-width:0.050000mm;stroke:black"/>
<polygon points="48.625,105.774 48.625,106.774 47.825,106.774 47.825,109.874 48.625,109.874 48.625,115.675 47.825,115.675 47.825,118.774 48.625,118.774 48.625,119.774 62.625,119.774 62.625,118.774 63.425,118.774 63.425,115.675 62.625,115.675 62.625,109.874 63.425,109.874 63.425,106.774 62.625,106.774 62.625,105.774" style="fill:none;stroke-width:0.050000mm;stroke:black"/>
<polygon points="29.575,105.774 29.575,106.774 28.775,106.774 28.775,109.874 29.575,109.874 29.575,115.675 28.775,115.675 28.775,118.774 29.575,118.774 29.575,119.774 43.575,119.774 43.575,118.774 44.375,118.774 44.375,115.675 43.575,115.675 43.575,109.874 44.375,109.874 44.375,106.774 43.575,106.774 43.575,105.774" style="fill:none;stroke-width:0.050000mm;stroke:black"/>
<polygon points="10.524,105.774 10.524,106.774 9.724,106.774 9.724,109.874 10.524,109.874 10.524,115.675 9.724,115.675 9.724,118.774 10.524,118.774 10.524,119.774 24.525,119.774 24.525,118.774 25.325,118.774 25.325,115.675 24.525,115.675 24.525,109.874 25.325,109.874 25.325,106.774 24.525,106.774 24.525,105.774" style="fill:none;stroke-width:0.050000mm;stroke:black"/>
<polygon points="48.625,86.725 48.625,87.725 47.825,87.725 47.825,90.824 48.625,90.824 48.625,96.625 47.825,96.625 47.825,99.725 48.625,99.725 48.625,100.725 62.625,100.725 62.625,99.725 63.425,99.725 63.425,96.625 62.625,96.625 62.625,90.824 63.425,90.824 63.425,87.725 62.625,87.725 62.625,86.725" style="fill:none;stroke-width:0.050000mm;stroke:black"/>
<polygon points="29.575,86.725 29.575,87.725 28.775,87.725 28.775,90.824 29.575,90.824 29.575,96.625 28.775,96.625 28.775,99.725 29.575,99.725 29.575,100.725 43.575,100.725 43.575,99.725 44.375,99.725 44.375,96.625 43.575,96.625 43.575,90.824 44.375,90.824 44.375,87.725 43.575,87.725 43.575,86.725" style="fill:none;stroke-width:0.050000mm;stroke:black"/>
<polygon points="10.524,86.725 10.524,87.725 9.724,87.725 9.724,90.824 10.524,90.824 10.524,96.625 9.724,96.625 9.724,99.725 10.524,99.725 10.524,100.725 24.525,100.725 24.525,99.725 25.325,99.725 25.325,96.625 24.525,96.625 24.525,90.824 25.325,90.824 25.325,87.725 24.525,87.725 24.525,86.725" style="fill:none;stroke-width:0.050000mm;stroke:black"/>
<polygon points="74.175,68.100 74.175,68.925 67.905,68.925 67.905,70.650 66.705,70.650 66.705,73.950 67.905,73.950 67.905,75.675 72.375,75.675 72.375,77.200 71.774,77.200 71.774,76.400 68.675,76.400 68.675,77.200 67.675,77.200 67.675,91.200 68.675,91.200 68.675,92.000 71.774,92.000 71.774,91.200 72.375,91.200 72.375,92.725 67.905,92.725 67.905,94.450 66.705,94.450 66.705,97.750 67.905,97.750 67.905,99.475 74.175,99.475 74.175,100.300 76.975,100.300 76.975,99.475 80.205,99.475 80.205,92.725 76.975,92.725 76.975,91.200 77.575,91.200 77.575,92.000 80.675,92.000 80.675,91.200 81.675,91.200 81.675,77.200 80.675,77.200 80.675,76.400 77.575,76.400 77.575,77.200 76.975,77.200 76.975,75.675 80.205,75.675 80.205,68.925 76.975,68.925 76.975,68.100" style="fill:none;stroke-width:0.050000mm;stroke:black"/>
<polygon points="48.625,67.675 48.625,68.675 47.825,68.675 47.825,71.774 48.625,71.774 48.625,77.575 47.825,77.575 47.825,80.675 48.625,80.675 48.625,81.675 62.625,81.675 62.625,80.675 63.425,80.675 63.425,77.575 62.625,77.575 62.625,71.774 63.425,71.774 63.425,68.675 62.625,68.675 62.625,67.675" style="fill:none;stroke-width:0.050000mm;stroke:black"/>
<polygon points="29.575,67.675 29.575,68.675 28.775,68.675 28.775,71.774 29.575,71.774 29.575,77.575 28.775,77.575 28.775,80.675 29.575,80.675 29.575,81.675 43.575,81.675 43.575,80.675 44.375,80.675 44.375,77.575 43.575,77.575 43.575,71.774 44.375,71.774 44.375,68.675 43.575,68.675 43.575,67.675" style="fill:none;stroke-width:0.050000mm;stroke:black"/>
<polygon points="10.524,67.675 10.524,68.675 9.724,68.675 9.724,71.774 10.524,71.774 10.524,77.575 9.724,77.575 9.724,80.675 10.524,80.675 10.524,81.675 24.525,81.675 24.525,80.675 25.325,80.675 25.325,77.575 24.525,77.575 24.525,71.774 25.325,71.774 25.325,68.675 24.525,68.675 24.525,67.675" style="fill:none;stroke-width:0.050000mm;stroke:black"/>
<polygon points="67.675,48.625 67.675,49.625 66.875,49.625 66.875,52.725 67.675,52.725 67.675,58.525 66.875,58.525 66.875,61.625 67.675,61.625 67.675,62.625 81.675,62.625 81.675,61.625 82.475,61.625 82.475,58.525 81.675,58.525 81.675,52.725 82.475,52.725 82.475,49.625 81.675,49.625 81.675,48.625" style="fill:none;stroke-width:0.050000mm;stroke:black"/>
<polygon points="48.625,48.625 48.625,49.625 47.825,49.625 47.825,52.725 48.625,52.725 48.625,58.525 47.825,58.525 47.825,61.625 48.625,61.625 48.625,62.625 62.625,62.625 62.625,61.625 63.425,61.625 63.425,58.525 62.625,58.525 62.625,52.725 63.425,52.725 63.425,49.625 62.625,49.625 62.625,48.625" style="fill:none;stroke-width:0.050000mm;stroke:black"/>
<polygon points="29.575,48.625 29.575,49.625 28.775,49.625 28.775,52.725 29.575,52.725 29.575,58.525 28.775,58.525 28.775,61.625 29.575,61.625 29.575,62.625 43.575,62.625 43.575,61.625 44.375,61.625 44.375,58.525 43.575,58.525 43.575,52.725 44.375,52.725 44.375,49.625 43.575,49.625 43.575,48.625" style="fill:none;stroke-width:0.050000mm;stroke:black"/>
<polygon points="10.524,48.625 10.524,49.625 9.724,49.625 9.724,52.725 10.524,52.725 10.524,58.525 9.724,58.525 9.724,61.625 10.524,61.625 10.524,62.625 24.525,62.625 24.525,61.625 25.325,61.625 25.325,58.525 24.525,58.525 24.525,52.725 25.325,52.725 25.325,49.625 24.525,49.625 24.525,48.625" style="fill:none;stroke-width:0.050000mm;stroke:black"/>
<polygon points="67.675,29.575 67.675,30.575 66.875,30.575 66.875,33.675 67.675,33.675 67.675,39.475 66.875,39.475 66.875,42.575 67.675,42.575 67.675,43.575 81.675,43.575 81.675,42.575 82.475,42.575 82.475,39.475 81.675,39.475 81.675,33.675 82.475,33.675 82.475,30.575 81.675,30.575 81.675,29.575" style="fill:none;stroke-width:0.050000mm;stroke:black"/>
<polygon points="48.625,29.575 48.625,30.575 47.825,30.575 47.825,33.675 48.625,33.675 48.625,39.475 47.825,39.475 47.825,42.575 48.625,42.575 48.625,43.575 62.625,43.575 62.625,42.575 63.425,42.575 63.425,39.475 62.625,39.475 62.625,33.675 63.425,33.675 63.425,30.575 62.625,30.575 62.625,29.575" style="fill:none;stroke-width:0.050000mm;stroke:black"/>
<polygon points="29.575,29.575 29.575,30.575 28.775,30.575 28.775,33.675 29.575,33.675 29.575,39.475 28.775,39.475 28.775,42.575 29.575,42.575 29.575,43.575 43.575,43.575 43.575,42.575 44.375,42.575 44.375,39.475 43.575,39.475 43.575,33.675 44.375,33.675 44.375,30.575 43.575,30.575 43.575,29.575" style="fill:none;stroke-width:0.050000mm;stroke:black"/>
<polygon points="10.524,29.575 10.524,30.575 9.724,30.575 9.724,33.675 10.524,33.675 10.524,39.475 9.724,39.475 9.724,42.575 10.524,42.575 10.524,43.575 24.525,43.575 24.525,42.575 25.325,42.575 25.325,39.475 24.525,39.475 24.525,33.675 25.325,33.675 25.325,30.575 24.525,30.575 24.525,29.575" style="fill:none;stroke-width:0.050000mm;stroke:black"/>
<polygon points="67.675,10.524 67.675,11.524 66.875,11.524 66.875,14.624 67.675,14.624 67.675,20.424 66.875,20.424 66.875,23.525 67.675,23.525 67.675,24.525 81.675,24.525 81.675,23.525 82.475,23.525 82.475,20.424 81.675,20.424 81.675,14.624 82.475,14.624 82.475,11.524 81.675,11.524 81.675,10.524" style="fill:none;stroke-width:0.050000mm;stroke:black"/>
<polygon points="48.625,10.524 48.625,11.524 47.825,11.524 47.825,14.624 48.625,14.624 48.625,20.424 47.825,20.424 47.825,23.525 48.625,23.525 48.625,24.525 62.625,24.525 62.625,23.525 63.425,23.525 63.425,20.424 62.625,20.424 62.625,14.624 63.425,14.624 63.425,11.524 62.625,11.524 62.625,10.524" style="fill:none;stroke-width:0.050000mm;stroke:black"/>
<polygon points="29.575,10.524 29.575,11.524 28.775,11.524 28.775,14.624 29.575,14.624 29.575,20.424 28.775,20.424 28.775,23.525 29.575,23.525 29.575,24.525 43.575,24.525 43.575,23.525 44.375,23.525 44.375,20.424 43.575,20.424 43.575,14.624 44.375,14.624 44.375,11.524 43.575,11.524 43.575,10.524" style="fill:none;stroke-width:0.050000mm;stroke:black"/>
<polygon points="10.524,10.524 10.524,11.524 9.724,11.524 9.724,14.624 10.524,14.624 10.524,20.424 9.724,20.424 9.724,23.525 10.524,23.525 10.524,24.525 24.525,24.525 24.525,23.525 25.325,23.525 25.325,20.424 24.525,20.424 24.525,14.624 25.325,14.624 25.325,11.524 24.525,11.524 24.525,10.524" style="fill:none;stroke-width:0.050000mm;stroke:black"/>
</svg>
