  0
SECTION
  2
HEADER
  9
$ACADVER
  1
AC1009
  9
$EXTMIN
 10
0.0
 20
0.0
 30
0.0
  9
$EXTMAX
 10
1000.0
 20
1000.0
 30
0.0
  9
$FILLMODE
 70
 0
  9
$SPLFRAME
 70
 1
  0
ENDSEC
  0
SECTION
  2
TABLES
  0
TABLE
  2
LAYER
 70
1
  0
LAYER
  2
0
 70
     0
 62
     7
  6
CONTINUOUS
  0
ENDTAB
  0
ENDSEC
  0
SECTION
  2
ENTITIES
  0
LINE
  8
0
 62
     0
 10
0.0950846
 20
133.255
 30
0.0
 11
75.9188
 21
133.255
 31
0.0
  0
LINE
  8
0
 62
     0
 10
75.9188
 20
133.255
 30
0.0
 11
75.9188
 21
0.228755
 31
0.0
  0
LINE
  8
0
 62
     0
 10
75.9188
 20
0.228755
 30
0.0
 11
0.0950846
 21
0.228755
 31
0.0
  0
LINE
  8
0
 62
     0
 10
0.0950846
 20
0.228755
 30
0.0
 11
0.0950846
 21
133.255
 31
0.0
  0
LINE
  8
0
 62
     0
 10
11.9558
 20
16.593
 30
0.0
 11
11.9558
 21
15.5925
 31
0.0
  0
LINE
  8
0
 62
     0
 10
11.9558
 20
15.5925
 30
0.0
 11
11.1566
 21
15.5925
 31
0.0
  0
LINE
  8
0
 62
     0
 10
11.1566
 20
15.5925
 30
0.0
 11
11.1566
 21
12.4933
 31
0.0
  0
LINE
  8
0
 62
     0
 10
11.1566
 20
12.4933
 30
0.0
 11
11.9558
 21
12.4933
 31
0.0
  0
LINE
  8
0
 62
     0
 10
11.9558
 20
12.4933
 30
0.0
 11
11.9558
 21
11.8938
 31
0.0
  0
LINE
  8
0
 62
     0
 10
11.9558
 20
11.8938
 30
0.0
 11
10.4317
 21
11.8938
 31
0.0
  0
LINE
  8
0
 62
     0
 10
10.4317
 20
11.8938
 30
0.0
 11
10.4317
 21
15.1226
 31
0.0
  0
LINE
  8
0
 62
     0
 10
10.4317
 20
15.1226
 30
0.0
 11
3.68212
 21
15.1226
 31
0.0
  0
LINE
  8
0
 62
     0
 10
3.68212
 20
15.1226
 30
0.0
 11
3.68212
 21
11.8938
 31
0.0
  0
LINE
  8
0
 62
     0
 10
3.68212
 20
11.8938
 30
0.0
 11
2.85667
 21
11.8938
 31
0.0
  0
LINE
  8
0
 62
     0
 10
2.85667
 20
11.8938
 30
0.0
 11
2.85667
 21
9.09228
 31
0.0
  0
LINE
  8
0
 62
     0
 10
2.85667
 20
9.09228
 30
0.0
 11
3.68212
 21
9.09228
 31
0.0
  0
LINE
  8
0
 62
     0
 10
3.68212
 20
9.09228
 30
0.0
 11
3.68212
 21
2.8236
 31
0.0
  0
LINE
  8
0
 62
     0
 10
3.68212
 20
2.8236
 30
0.0
 11
5.40604
 21
2.8236
 31
0.0
  0
LINE
  8
0
 62
     0
 10
5.40604
 20
2.8236
 30
0.0
 11
5.40604
 21
1.62195
 31
0.0
  0
LINE
  8
0
 62
     0
 10
5.40604
 20
1.62195
 30
0.0
 11
8.70645
 21
1.62195
 31
0.0
  0
LINE
  8
0
 62
     0
 10
8.70645
 20
1.62195
 30
0.0
 11
8.70645
 21
2.8236
 31
0.0
  0
LINE
  8
0
 62
     0
 10
8.70645
 20
2.8236
 30
0.0
 11
10.4317
 21
2.8236
 31
0.0
  0
LINE
  8
0
 62
     0
 10
10.4317
 20
2.8236
 30
0.0
 11
10.4317
 21
7.29396
 31
0.0
  0
LINE
  8
0
 62
     0
 10
10.4317
 20
7.29396
 30
0.0
 11
11.9558
 21
7.29396
 31
0.0
  0
LINE
  8
0
 62
     0
 10
11.9558
 20
7.29396
 30
0.0
 11
11.9558
 21
6.69315
 31
0.0
  0
LINE
  8
0
 62
     0
 10
11.9558
 20
6.69315
 30
0.0
 11
11.1566
 21
6.69315
 31
0.0
  0
LINE
  8
0
 62
     0
 10
11.1566
 20
6.69315
 30
0.0
 11
11.1566
 21
3.59255
 31
0.0
  0
LINE
  8
0
 62
     0
 10
11.1566
 20
3.59255
 30
0.0
 11
11.9558
 21
3.59255
 31
0.0
  0
LINE
  8
0
 62
     0
 10
11.9558
 20
3.59255
 30
0.0
 11
11.9558
 21
2.59209
 31
0.0
  0
LINE
  8
0
 62
     0
 10
11.9558
 20
2.59209
 30
0.0
 11
25.9553
 21
2.59209
 31
0.0
  0
LINE
  8
0
 62
     0
 10
25.9553
 20
2.59209
 30
0.0
 11
25.9553
 21
3.59255
 31
0.0
  0
LINE
  8
0
 62
     0
 10
25.9553
 20
3.59255
 30
0.0
 11
26.756
 21
3.59255
 31
0.0
  0
LINE
  8
0
 62
     0
 10
26.756
 20
3.59255
 30
0.0
 11
26.756
 21
6.69315
 31
0.0
  0
LINE
  8
0
 62
     0
 10
26.756
 20
6.69315
 30
0.0
 11
25.9553
 21
6.69315
 31
0.0
  0
LINE
  8
0
 62
     0
 10
25.9553
 20
6.69315
 30
0.0
 11
25.9553
 21
7.29396
 31
0.0
  0
LINE
  8
0
 62
     0
 10
25.9553
 20
7.29396
 30
0.0
 11
27.4808
 21
7.29396
 31
0.0
  0
LINE
  8
0
 62
     0
 10
27.4808
 20
7.29396
 30
0.0
 11
27.4808
 21
2.8236
 31
0.0
  0
LINE
  8
0
 62
     0
 10
27.4808
 20
2.8236
 30
0.0
 11
29.2062
 21
2.8236
 31
0.0
  0
LINE
  8
0
 62
     0
 10
29.2062
 20
2.8236
 30
0.0
 11
29.2062
 21
1.62195
 31
0.0
  0
LINE
  8
0
 62
     0
 10
29.2062
 20
1.62195
 30
0.0
 11
32.5052
 21
1.62195
 31
0.0
  0
LINE
  8
0
 62
     0
 10
32.5052
 20
1.62195
 30
0.0
 11
32.5052
 21
2.8236
 31
0.0
  0
LINE
  8
0
 62
     0
 10
32.5052
 20
2.8236
 30
0.0
 11
34.2319
 21
2.8236
 31
0.0
  0
LINE
  8
0
 62
     0
 10
34.2319
 20
2.8236
 30
0.0
 11
34.2319
 21
9.09228
 31
0.0
  0
LINE
  8
0
 62
     0
 10
34.2319
 20
9.09228
 30
0.0
 11
35.0559
 21
9.09228
 31
0.0
  0
LINE
  8
0
 62
     0
 10
35.0559
 20
9.09228
 30
0.0
 11
35.0559
 21
11.8938
 31
0.0
  0
LINE
  8
0
 62
     0
 10
35.0559
 20
11.8938
 30
0.0
 11
34.2319
 21
11.8938
 31
0.0
  0
LINE
  8
0
 62
     0
 10
34.2319
 20
11.8938
 30
0.0
 11
34.2319
 21
15.1226
 31
0.0
  0
LINE
  8
0
 62
     0
 10
34.2319
 20
15.1226
 30
0.0
 11
27.4808
 21
15.1226
 31
0.0
  0
LINE
  8
0
 62
     0
 10
27.4808
 20
15.1226
 30
0.0
 11
27.4808
 21
11.8938
 31
0.0
  0
LINE
  8
0
 62
     0
 10
27.4808
 20
11.8938
 30
0.0
 11
25.9553
 21
11.8938
 31
0.0
  0
LINE
  8
0
 62
     0
 10
25.9553
 20
11.8938
 30
0.0
 11
25.9553
 21
12.4933
 31
0.0
  0
LINE
  8
0
 62
     0
 10
25.9553
 20
12.4933
 30
0.0
 11
26.756
 21
12.4933
 31
0.0
  0
LINE
  8
0
 62
     0
 10
26.756
 20
12.4933
 30
0.0
 11
26.756
 21
15.5925
 31
0.0
  0
LINE
  8
0
 62
     0
 10
26.756
 20
15.5925
 30
0.0
 11
25.9553
 21
15.5925
 31
0.0
  0
LINE
  8
0
 62
     0
 10
25.9553
 20
15.5925
 30
0.0
 11
25.9553
 21
16.593
 31
0.0
  0
LINE
  8
0
 62
     0
 10
25.9553
 20
16.593
 30
0.0
 11
11.9558
 21
16.593
 31
0.0
  0
LINE
  8
0
 62
     0
 10
40.531
 20
16.593
 30
0.0
 11
40.531
 21
15.5925
 31
0.0
  0
LINE
  8
0
 62
     0
 10
40.531
 20
15.5925
 30
0.0
 11
39.7316
 21
15.5925
 31
0.0
  0
LINE
  8
0
 62
     0
 10
39.7316
 20
15.5925
 30
0.0
 11
39.7316
 21
12.4933
 31
0.0
  0
LINE
  8
0
 62
     0
 10
39.7316
 20
12.4933
 30
0.0
 11
40.531
 21
12.4933
 31
0.0
  0
LINE
  8
0
 62
     0
 10
40.531
 20
12.4933
 30
0.0
 11
40.531
 21
6.69315
 31
0.0
  0
LINE
  8
0
 62
     0
 10
40.531
 20
6.69315
 30
0.0
 11
39.7316
 21
6.69315
 31
0.0
  0
LINE
  8
0
 62
     0
 10
39.7316
 20
6.69315
 30
0.0
 11
39.7316
 21
3.59255
 31
0.0
  0
LINE
  8
0
 62
     0
 10
39.7316
 20
3.59255
 30
0.0
 11
40.531
 21
3.59255
 31
0.0
  0
LINE
  8
0
 62
     0
 10
40.531
 20
3.59255
 30
0.0
 11
40.531
 21
2.59209
 31
0.0
  0
LINE
  8
0
 62
     0
 10
40.531
 20
2.59209
 30
0.0
 11
54.5317
 21
2.59209
 31
0.0
  0
LINE
  8
0
 62
     0
 10
54.5317
 20
2.59209
 30
0.0
 11
54.5317
 21
3.59255
 31
0.0
  0
LINE
  8
0
 62
     0
 10
54.5317
 20
3.59255
 30
0.0
 11
55.3311
 21
3.59255
 31
0.0
  0
LINE
  8
0
 62
     0
 10
55.3311
 20
3.59255
 30
0.0
 11
55.3311
 21
6.69315
 31
0.0
  0
LINE
  8
0
 62
     0
 10
55.3311
 20
6.69315
 30
0.0
 11
54.5317
 21
6.69315
 31
0.0
  0
LINE
  8
0
 62
     0
 10
54.5317
 20
6.69315
 30
0.0
 11
54.5317
 21
12.4933
 31
0.0
  0
LINE
  8
0
 62
     0
 10
54.5317
 20
12.4933
 30
0.0
 11
55.3311
 21
12.4933
 31
0.0
  0
LINE
  8
0
 62
     0
 10
55.3311
 20
12.4933
 30
0.0
 11
55.3311
 21
15.5925
 31
0.0
  0
LINE
  8
0
 62
     0
 10
55.3311
 20
15.5925
 30
0.0
 11
54.5317
 21
15.5925
 31
0.0
  0
LINE
  8
0
 62
     0
 10
54.5317
 20
15.5925
 30
0.0
 11
54.5317
 21
16.593
 31
0.0
  0
LINE
  8
0
 62
     0
 10
54.5317
 20
16.593
 30
0.0
 11
40.531
 21
16.593
 31
0.0
  0
LINE
  8
0
 62
     0
 10
66.0809
 20
35.2171
 30
0.0
 11
66.0809
 21
34.3931
 31
0.0
  0
LINE
  8
0
 62
     0
 10
66.0809
 20
34.3931
 30
0.0
 11
59.811
 21
34.3931
 31
0.0
  0
LINE
  8
0
 62
     0
 10
59.811
 20
34.3931
 30
0.0
 11
59.811
 21
32.6678
 31
0.0
  0
LINE
  8
0
 62
     0
 10
59.811
 20
32.6678
 30
0.0
 11
58.6123
 21
32.6678
 31
0.0
  0
LINE
  8
0
 62
     0
 10
58.6123
 20
32.6678
 30
0.0
 11
58.6123
 21
29.3688
 31
0.0
  0
LINE
  8
0
 62
     0
 10
58.6123
 20
29.3688
 30
0.0
 11
59.811
 21
29.3688
 31
0.0
  0
LINE
  8
0
 62
     0
 10
59.811
 20
29.3688
 30
0.0
 11
59.811
 21
27.6435
 31
0.0
  0
LINE
  8
0
 62
     0
 10
59.811
 20
27.6435
 30
0.0
 11
64.2814
 21
27.6435
 31
0.0
  0
LINE
  8
0
 62
     0
 10
64.2814
 20
27.6435
 30
0.0
 11
64.2814
 21
26.118
 31
0.0
  0
LINE
  8
0
 62
     0
 10
64.2814
 20
26.118
 30
0.0
 11
63.682
 21
26.118
 31
0.0
  0
LINE
  8
0
 62
     0
 10
63.682
 20
26.118
 30
0.0
 11
63.682
 21
26.9172
 31
0.0
  0
LINE
  8
0
 62
     0
 10
63.682
 20
26.9172
 30
0.0
 11
60.5801
 21
26.9172
 31
0.0
  0
LINE
  8
0
 62
     0
 10
60.5801
 20
26.9172
 30
0.0
 11
60.5801
 21
26.118
 31
0.0
  0
LINE
  8
0
 62
     0
 10
60.5801
 20
26.118
 30
0.0
 11
59.581
 21
26.118
 31
0.0
  0
LINE
  8
0
 62
     0
 10
59.581
 20
26.118
 30
0.0
 11
59.581
 21
12.1185
 31
0.0
  0
LINE
  8
0
 62
     0
 10
59.581
 20
12.1185
 30
0.0
 11
60.5801
 21
12.1185
 31
0.0
  0
LINE
  8
0
 62
     0
 10
60.5801
 20
12.1185
 30
0.0
 11
60.5801
 21
11.3178
 31
0.0
  0
LINE
  8
0
 62
     0
 10
60.5801
 20
11.3178
 30
0.0
 11
63.682
 21
11.3178
 31
0.0
  0
LINE
  8
0
 62
     0
 10
63.682
 20
11.3178
 30
0.0
 11
63.682
 21
12.1185
 31
0.0
  0
LINE
  8
0
 62
     0
 10
63.682
 20
12.1185
 30
0.0
 11
64.2814
 21
12.1185
 31
0.0
  0
LINE
  8
0
 62
     0
 10
64.2814
 20
12.1185
 30
0.0
 11
64.2814
 21
10.593
 31
0.0
  0
LINE
  8
0
 62
     0
 10
64.2814
 20
10.593
 30
0.0
 11
59.811
 21
10.593
 31
0.0
  0
LINE
  8
0
 62
     0
 10
59.811
 20
10.593
 30
0.0
 11
59.811
 21
8.86905
 31
0.0
  0
LINE
  8
0
 62
     0
 10
59.811
 20
8.86905
 30
0.0
 11
58.6123
 21
8.86905
 31
0.0
  0
LINE
  8
0
 62
     0
 10
58.6123
 20
8.86905
 30
0.0
 11
58.6123
 21
5.56729
 31
0.0
  0
LINE
  8
0
 62
     0
 10
58.6123
 20
5.56729
 30
0.0
 11
59.811
 21
5.56729
 31
0.0
  0
LINE
  8
0
 62
     0
 10
59.811
 20
5.56729
 30
0.0
 11
59.811
 21
3.84196
 31
0.0
  0
LINE
  8
0
 62
     0
 10
59.811
 20
3.84196
 30
0.0
 11
66.0809
 21
3.84196
 31
0.0
  0
LINE
  8
0
 62
     0
 10
66.0809
 20
3.84196
 30
0.0
 11
66.0809
 21
3.0179
 31
0.0
  0
LINE
  8
0
 62
     0
 10
66.0809
 20
3.0179
 30
0.0
 11
68.8813
 21
3.0179
 31
0.0
  0
LINE
  8
0
 62
     0
 10
68.8813
 20
3.0179
 30
0.0
 11
68.8813
 21
3.84196
 31
0.0
  0
LINE
  8
0
 62
     0
 10
68.8813
 20
3.84196
 30
0.0
 11
72.1113
 21
3.84196
 31
0.0
  0
LINE
  8
0
 62
     0
 10
72.1113
 20
3.84196
 30
0.0
 11
72.1113
 21
10.593
 31
0.0
  0
LINE
  8
0
 62
     0
 10
72.1113
 20
10.593
 30
0.0
 11
68.8813
 21
10.593
 31
0.0
  0
LINE
  8
0
 62
     0
 10
68.8813
 20
10.593
 30
0.0
 11
68.8813
 21
12.1185
 31
0.0
  0
LINE
  8
0
 62
     0
 10
68.8813
 20
12.1185
 30
0.0
 11
69.4821
 21
12.1185
 31
0.0
  0
LINE
  8
0
 62
     0
 10
69.4821
 20
12.1185
 30
0.0
 11
69.4821
 21
11.3178
 31
0.0
  0
LINE
  8
0
 62
     0
 10
69.4821
 20
11.3178
 30
0.0
 11
72.5798
 21
11.3178
 31
0.0
  0
LINE
  8
0
 62
     0
 10
72.5798
 20
11.3178
 30
0.0
 11
72.5798
 21
12.1185
 31
0.0
  0
LINE
  8
0
 62
     0
 10
72.5798
 20
12.1185
 30
0.0
 11
73.5803
 21
12.1185
 31
0.0
  0
LINE
  8
0
 62
     0
 10
73.5803
 20
12.1185
 30
0.0
 11
73.5803
 21
26.118
 31
0.0
  0
LINE
  8
0
 62
     0
 10
73.5803
 20
26.118
 30
0.0
 11
72.5798
 21
26.118
 31
0.0
  0
LINE
  8
0
 62
     0
 10
72.5798
 20
26.118
 30
0.0
 11
72.5798
 21
26.9172
 31
0.0
  0
LINE
  8
0
 62
     0
 10
72.5798
 20
26.9172
 30
0.0
 11
69.4821
 21
26.9172
 31
0.0
  0
LINE
  8
0
 62
     0
 10
69.4821
 20
26.9172
 30
0.0
 11
69.4821
 21
26.118
 31
0.0
  0
LINE
  8
0
 62
     0
 10
69.4821
 20
26.118
 30
0.0
 11
68.8813
 21
26.118
 31
0.0
  0
LINE
  8
0
 62
     0
 10
68.8813
 20
26.118
 30
0.0
 11
68.8813
 21
27.6435
 31
0.0
  0
LINE
  8
0
 62
     0
 10
68.8813
 20
27.6435
 30
0.0
 11
72.1113
 21
27.6435
 31
0.0
  0
LINE
  8
0
 62
     0
 10
72.1113
 20
27.6435
 30
0.0
 11
72.1113
 21
34.3931
 31
0.0
  0
LINE
  8
0
 62
     0
 10
72.1113
 20
34.3931
 30
0.0
 11
68.8813
 21
34.3931
 31
0.0
  0
LINE
  8
0
 62
     0
 10
68.8813
 20
34.3931
 30
0.0
 11
68.8813
 21
35.2171
 31
0.0
  0
LINE
  8
0
 62
     0
 10
68.8813
 20
35.2171
 30
0.0
 11
66.0809
 21
35.2171
 31
0.0
  0
LINE
  8
0
 62
     0
 10
40.531
 20
35.6429
 30
0.0
 11
40.531
 21
34.6439
 31
0.0
  0
LINE
  8
0
 62
     0
 10
40.531
 20
34.6439
 30
0.0
 11
39.7316
 21
34.6439
 31
0.0
  0
LINE
  8
0
 62
     0
 10
39.7316
 20
34.6439
 30
0.0
 11
39.7316
 21
31.5419
 31
0.0
  0
LINE
  8
0
 62
     0
 10
39.7316
 20
31.5419
 30
0.0
 11
40.531
 21
31.5419
 31
0.0
  0
LINE
  8
0
 62
     0
 10
40.531
 20
31.5419
 30
0.0
 11
40.531
 21
25.7431
 31
0.0
  0
LINE
  8
0
 62
     0
 10
40.531
 20
25.7431
 30
0.0
 11
39.7316
 21
25.7431
 31
0.0
  0
LINE
  8
0
 62
     0
 10
39.7316
 20
25.7431
 30
0.0
 11
39.7316
 21
22.6439
 31
0.0
  0
LINE
  8
0
 62
     0
 10
39.7316
 20
22.6439
 30
0.0
 11
40.531
 21
22.6439
 31
0.0
  0
LINE
  8
0
 62
     0
 10
40.531
 20
22.6439
 30
0.0
 11
40.531
 21
21.6435
 31
0.0
  0
LINE
  8
0
 62
     0
 10
40.531
 20
21.6435
 30
0.0
 11
54.5317
 21
21.6435
 31
0.0
  0
LINE
  8
0
 62
     0
 10
54.5317
 20
21.6435
 30
0.0
 11
54.5317
 21
22.6439
 31
0.0
  0
LINE
  8
0
 62
     0
 10
54.5317
 20
22.6439
 30
0.0
 11
55.3311
 21
22.6439
 31
0.0
  0
LINE
  8
0
 62
     0
 10
55.3311
 20
22.6439
 30
0.0
 11
55.3311
 21
25.7431
 31
0.0
  0
LINE
  8
0
 62
     0
 10
55.3311
 20
25.7431
 30
0.0
 11
54.5317
 21
25.7431
 31
0.0
  0
LINE
  8
0
 62
     0
 10
54.5317
 20
25.7431
 30
0.0
 11
54.5317
 21
31.5419
 31
0.0
  0
LINE
  8
0
 62
     0
 10
54.5317
 20
31.5419
 30
0.0
 11
55.3311
 21
31.5419
 31
0.0
  0
LINE
  8
0
 62
     0
 10
55.3311
 20
31.5419
 30
0.0
 11
55.3311
 21
34.6439
 31
0.0
  0
LINE
  8
0
 62
     0
 10
55.3311
 20
34.6439
 30
0.0
 11
54.5317
 21
34.6439
 31
0.0
  0
LINE
  8
0
 62
     0
 10
54.5317
 20
34.6439
 30
0.0
 11
54.5317
 21
35.6429
 31
0.0
  0
LINE
  8
0
 62
     0
 10
54.5317
 20
35.6429
 30
0.0
 11
40.531
 21
35.6429
 31
0.0
  0
LINE
  8
0
 62
     0
 10
21.4809
 20
35.6429
 30
0.0
 11
21.4809
 21
34.6439
 31
0.0
  0
LINE
  8
0
 62
     0
 10
21.4809
 20
34.6439
 30
0.0
 11
20.6816
 21
34.6439
 31
0.0
  0
LINE
  8
0
 62
     0
 10
20.6816
 20
34.6439
 30
0.0
 11
20.6816
 21
31.5419
 31
0.0
  0
LINE
  8
0
 62
     0
 10
20.6816
 20
31.5419
 30
0.0
 11
21.4809
 21
31.5419
 31
0.0
  0
LINE
  8
0
 62
     0
 10
21.4809
 20
31.5419
 30
0.0
 11
21.4809
 21
25.7431
 31
0.0
  0
LINE
  8
0
 62
     0
 10
21.4809
 20
25.7431
 30
0.0
 11
20.6816
 21
25.7431
 31
0.0
  0
LINE
  8
0
 62
     0
 10
20.6816
 20
25.7431
 30
0.0
 11
20.6816
 21
22.6439
 31
0.0
  0
LINE
  8
0
 62
     0
 10
20.6816
 20
22.6439
 30
0.0
 11
21.4809
 21
22.6439
 31
0.0
  0
LINE
  8
0
 62
     0
 10
21.4809
 20
22.6439
 30
0.0
 11
21.4809
 21
21.6435
 31
0.0
  0
LINE
  8
0
 62
     0
 10
21.4809
 20
21.6435
 30
0.0
 11
35.4817
 21
21.6435
 31
0.0
  0
LINE
  8
0
 62
     0
 10
35.4817
 20
21.6435
 30
0.0
 11
35.4817
 21
22.6439
 31
0.0
  0
LINE
  8
0
 62
     0
 10
35.4817
 20
22.6439
 30
0.0
 11
36.2811
 21
22.6439
 31
0.0
  0
LINE
  8
0
 62
     0
 10
36.2811
 20
22.6439
 30
0.0
 11
36.2811
 21
25.7431
 31
0.0
  0
LINE
  8
0
 62
     0
 10
36.2811
 20
25.7431
 30
0.0
 11
35.4817
 21
25.7431
 31
0.0
  0
LINE
  8
0
 62
     0
 10
35.4817
 20
25.7431
 30
0.0
 11
35.4817
 21
31.5419
 31
0.0
  0
LINE
  8
0
 62
     0
 10
35.4817
 20
31.5419
 30
0.0
 11
36.2811
 21
31.5419
 31
0.0
  0
LINE
  8
0
 62
     0
 10
36.2811
 20
31.5419
 30
0.0
 11
36.2811
 21
34.6439
 31
0.0
  0
LINE
  8
0
 62
     0
 10
36.2811
 20
34.6439
 30
0.0
 11
35.4817
 21
34.6439
 31
0.0
  0
LINE
  8
0
 62
     0
 10
35.4817
 20
34.6439
 30
0.0
 11
35.4817
 21
35.6429
 31
0.0
  0
LINE
  8
0
 62
     0
 10
35.4817
 20
35.6429
 30
0.0
 11
21.4809
 21
35.6429
 31
0.0
  0
LINE
  8
0
 62
     0
 10
2.43086
 20
35.6429
 30
0.0
 11
2.43086
 21
34.6439
 31
0.0
  0
LINE
  8
0
 62
     0
 10
2.43086
 20
34.6439
 30
0.0
 11
1.6316
 21
34.6439
 31
0.0
  0
LINE
  8
0
 62
     0
 10
1.6316
 20
34.6439
 30
0.0
 11
1.6316
 21
31.5419
 31
0.0
  0
LINE
  8
0
 62
     0
 10
1.6316
 20
31.5419
 30
0.0
 11
2.43086
 21
31.5419
 31
0.0
  0
LINE
  8
0
 62
     0
 10
2.43086
 20
31.5419
 30
0.0
 11
2.43086
 21
25.7431
 31
0.0
  0
LINE
  8
0
 62
     0
 10
2.43086
 20
25.7431
 30
0.0
 11
1.6316
 21
25.7431
 31
0.0
  0
LINE
  8
0
 62
     0
 10
1.6316
 20
25.7431
 30
0.0
 11
1.6316
 21
22.6439
 31
0.0
  0
LINE
  8
0
 62
     0
 10
1.6316
 20
22.6439
 30
0.0
 11
2.43086
 21
22.6439
 31
0.0
  0
LINE
  8
0
 62
     0
 10
2.43086
 20
22.6439
 30
0.0
 11
2.43086
 21
21.6435
 31
0.0
  0
LINE
  8
0
 62
     0
 10
2.43086
 20
21.6435
 30
0.0
 11
16.4317
 21
21.6435
 31
0.0
  0
LINE
  8
0
 62
     0
 10
16.4317
 20
21.6435
 30
0.0
 11
16.4317
 21
22.6439
 31
0.0
  0
LINE
  8
0
 62
     0
 10
16.4317
 20
22.6439
 30
0.0
 11
17.231
 21
22.6439
 31
0.0
  0
LINE
  8
0
 62
     0
 10
17.231
 20
22.6439
 30
0.0
 11
17.231
 21
25.7431
 31
0.0
  0
LINE
  8
0
 62
     0
 10
17.231
 20
25.7431
 30
0.0
 11
16.4317
 21
25.7431
 31
0.0
  0
LINE
  8
0
 62
     0
 10
16.4317
 20
25.7431
 30
0.0
 11
16.4317
 21
31.5419
 31
0.0
  0
LINE
  8
0
 62
     0
 10
16.4317
 20
31.5419
 30
0.0
 11
17.231
 21
31.5419
 31
0.0
  0
LINE
  8
0
 62
     0
 10
17.231
 20
31.5419
 30
0.0
 11
17.231
 21
34.6439
 31
0.0
  0
LINE
  8
0
 62
     0
 10
17.231
 20
34.6439
 30
0.0
 11
16.4317
 21
34.6439
 31
0.0
  0
LINE
  8
0
 62
     0
 10
16.4317
 20
34.6439
 30
0.0
 11
16.4317
 21
35.6429
 31
0.0
  0
LINE
  8
0
 62
     0
 10
16.4317
 20
35.6429
 30
0.0
 11
2.43086
 21
35.6429
 31
0.0
  0
LINE
  8
0
 62
     0
 10
40.531
 20
54.6929
 30
0.0
 11
40.531
 21
53.6938
 31
0.0
  0
LINE
  8
0
 62
     0
 10
40.531
 20
53.6938
 30
0.0
 11
39.7316
 21
53.6938
 31
0.0
  0
LINE
  8
0
 62
     0
 10
39.7316
 20
53.6938
 30
0.0
 11
39.7316
 21
50.5919
 31
0.0
  0
LINE
  8
0
 62
     0
 10
39.7316
 20
50.5919
 30
0.0
 11
40.531
 21
50.5919
 31
0.0
  0
LINE
  8
0
 62
     0
 10
40.531
 20
50.5919
 30
0.0
 11
40.531
 21
44.7933
 31
0.0
  0
LINE
  8
0
 62
     0
 10
40.531
 20
44.7933
 30
0.0
 11
39.7316
 21
44.7933
 31
0.0
  0
LINE
  8
0
 62
     0
 10
39.7316
 20
44.7933
 30
0.0
 11
39.7316
 21
41.6941
 31
0.0
  0
LINE
  8
0
 62
     0
 10
39.7316
 20
41.6941
 30
0.0
 11
40.531
 21
41.6941
 31
0.0
  0
LINE
  8
0
 62
     0
 10
40.531
 20
41.6941
 30
0.0
 11
40.531
 21
40.6936
 31
0.0
  0
LINE
  8
0
 62
     0
 10
40.531
 20
40.6936
 30
0.0
 11
54.5317
 21
40.6936
 31
0.0
  0
LINE
  8
0
 62
     0
 10
54.5317
 20
40.6936
 30
0.0
 11
54.5317
 21
41.6941
 31
0.0
  0
LINE
  8
0
 62
     0
 10
54.5317
 20
41.6941
 30
0.0
 11
55.3311
 21
41.6941
 31
0.0
  0
LINE
  8
0
 62
     0
 10
55.3311
 20
41.6941
 30
0.0
 11
55.3311
 21
44.7933
 31
0.0
  0
LINE
  8
0
 62
     0
 10
55.3311
 20
44.7933
 30
0.0
 11
54.5317
 21
44.7933
 31
0.0
  0
LINE
  8
0
 62
     0
 10
54.5317
 20
44.7933
 30
0.0
 11
54.5317
 21
50.5919
 31
0.0
  0
LINE
  8
0
 62
     0
 10
54.5317
 20
50.5919
 30
0.0
 11
55.3311
 21
50.5919
 31
0.0
  0
LINE
  8
0
 62
     0
 10
55.3311
 20
50.5919
 30
0.0
 11
55.3311
 21
53.6938
 31
0.0
  0
LINE
  8
0
 62
     0
 10
55.3311
 20
53.6938
 30
0.0
 11
54.5317
 21
53.6938
 31
0.0
  0
LINE
  8
0
 62
     0
 10
54.5317
 20
53.6938
 30
0.0
 11
54.5317
 21
54.6929
 31
0.0
  0
LINE
  8
0
 62
     0
 10
54.5317
 20
54.6929
 30
0.0
 11
40.531
 21
54.6929
 31
0.0
  0
LINE
  8
0
 62
     0
 10
21.4809
 20
54.6929
 30
0.0
 11
21.4809
 21
53.6938
 31
0.0
  0
LINE
  8
0
 62
     0
 10
21.4809
 20
53.6938
 30
0.0
 11
20.6816
 21
53.6938
 31
0.0
  0
LINE
  8
0
 62
     0
 10
20.6816
 20
53.6938
 30
0.0
 11
20.6816
 21
50.5919
 31
0.0
  0
LINE
  8
0
 62
     0
 10
20.6816
 20
50.5919
 30
0.0
 11
21.4809
 21
50.5919
 31
0.0
  0
LINE
  8
0
 62
     0
 10
21.4809
 20
50.5919
 30
0.0
 11
21.4809
 21
44.7933
 31
0.0
  0
LINE
  8
0
 62
     0
 10
21.4809
 20
44.7933
 30
0.0
 11
20.6816
 21
44.7933
 31
0.0
  0
LINE
  8
0
 62
     0
 10
20.6816
 20
44.7933
 30
0.0
 11
20.6816
 21
41.6941
 31
0.0
  0
LINE
  8
0
 62
     0
 10
20.6816
 20
41.6941
 30
0.0
 11
21.4809
 21
41.6941
 31
0.0
  0
LINE
  8
0
 62
     0
 10
21.4809
 20
41.6941
 30
0.0
 11
21.4809
 21
40.6936
 31
0.0
  0
LINE
  8
0
 62
     0
 10
21.4809
 20
40.6936
 30
0.0
 11
35.4817
 21
40.6936
 31
0.0
  0
LINE
  8
0
 62
     0
 10
35.4817
 20
40.6936
 30
0.0
 11
35.4817
 21
41.6941
 31
0.0
  0
LINE
  8
0
 62
     0
 10
35.4817
 20
41.6941
 30
0.0
 11
36.2811
 21
41.6941
 31
0.0
  0
LINE
  8
0
 62
     0
 10
36.2811
 20
41.6941
 30
0.0
 11
36.2811
 21
44.7933
 31
0.0
  0
LINE
  8
0
 62
     0
 10
36.2811
 20
44.7933
 30
0.0
 11
35.4817
 21
44.7933
 31
0.0
  0
LINE
  8
0
 62
     0
 10
35.4817
 20
44.7933
 30
0.0
 11
35.4817
 21
50.5919
 31
0.0
  0
LINE
  8
0
 62
     0
 10
35.4817
 20
50.5919
 30
0.0
 11
36.2811
 21
50.5919
 31
0.0
  0
LINE
  8
0
 62
     0
 10
36.2811
 20
50.5919
 30
0.0
 11
36.2811
 21
53.6938
 31
0.0
  0
LINE
  8
0
 62
     0
 10
36.2811
 20
53.6938
 30
0.0
 11
35.4817
 21
53.6938
 31
0.0
  0
LINE
  8
0
 62
     0
 10
35.4817
 20
53.6938
 30
0.0
 11
35.4817
 21
54.6929
 31
0.0
  0
LINE
  8
0
 62
     0
 10
35.4817
 20
54.6929
 30
0.0
 11
21.4809
 21
54.6929
 31
0.0
  0
LINE
  8
0
 62
     0
 10
2.43086
 20
54.6929
 30
0.0
 11
2.43086
 21
53.6938
 31
0.0
  0
LINE
  8
0
 62
     0
 10
2.43086
 20
53.6938
 30
0.0
 11
1.6316
 21
53.6938
 31
0.0
  0
LINE
  8
0
 62
     0
 10
1.6316
 20
53.6938
 30
0.0
 11
1.6316
 21
50.5919
 31
0.0
  0
LINE
  8
0
 62
     0
 10
1.6316
 20
50.5919
 30
0.0
 11
2.43086
 21
50.5919
 31
0.0
  0
LINE
  8
0
 62
     0
 10
2.43086
 20
50.5919
 30
0.0
 11
2.43086
 21
44.7933
 31
0.0
  0
LINE
  8
0
 62
     0
 10
2.43086
 20
44.7933
 30
0.0
 11
1.6316
 21
44.7933
 31
0.0
  0
LINE
  8
0
 62
     0
 10
1.6316
 20
44.7933
 30
0.0
 11
1.6316
 21
41.6941
 31
0.0
  0
LINE
  8
0
 62
     0
 10
1.6316
 20
41.6941
 30
0.0
 11
2.43086
 21
41.6941
 31
0.0
  0
LINE
  8
0
 62
     0
 10
2.43086
 20
41.6941
 30
0.0
 11
2.43086
 21
40.6936
 31
0.0
  0
LINE
  8
0
 62
     0
 10
2.43086
 20
40.6936
 30
0.0
 11
16.4317
 21
40.6936
 31
0.0
  0
LINE
  8
0
 62
     0
 10
16.4317
 20
40.6936
 30
0.0
 11
16.4317
 21
41.6941
 31
0.0
  0
LINE
  8
0
 62
     0
 10
16.4317
 20
41.6941
 30
0.0
 11
17.231
 21
41.6941
 31
0.0
  0
LINE
  8
0
 62
     0
 10
17.231
 20
41.6941
 30
0.0
 11
17.231
 21
44.7933
 31
0.0
  0
LINE
  8
0
 62
     0
 10
17.231
 20
44.7933
 30
0.0
 11
16.4317
 21
44.7933
 31
0.0
  0
LINE
  8
0
 62
     0
 10
16.4317
 20
44.7933
 30
0.0
 11
16.4317
 21
50.5919
 31
0.0
  0
LINE
  8
0
 62
     0
 10
16.4317
 20
50.5919
 30
0.0
 11
17.231
 21
50.5919
 31
0.0
  0
LINE
  8
0
 62
     0
 10
17.231
 20
50.5919
 30
0.0
 11
17.231
 21
53.6938
 31
0.0
  0
LINE
  8
0
 62
     0
 10
17.231
 20
53.6938
 30
0.0
 11
16.4317
 21
53.6938
 31
0.0
  0
LINE
  8
0
 62
     0
 10
16.4317
 20
53.6938
 30
0.0
 11
16.4317
 21
54.6929
 31
0.0
  0
LINE
  8
0
 62
     0
 10
16.4317
 20
54.6929
 30
0.0
 11
2.43086
 21
54.6929
 31
0.0
  0
LINE
  8
0
 62
     0
 10
66.0809
 20
73.3185
 30
0.0
 11
66.0809
 21
72.493
 31
0.0
  0
LINE
  8
0
 62
     0
 10
66.0809
 20
72.493
 30
0.0
 11
59.811
 21
72.493
 31
0.0
  0
LINE
  8
0
 62
     0
 10
59.811
 20
72.493
 30
0.0
 11
59.811
 21
70.769
 31
0.0
  0
LINE
  8
0
 62
     0
 10
59.811
 20
70.769
 30
0.0
 11
58.6123
 21
70.769
 31
0.0
  0
LINE
  8
0
 62
     0
 10
58.6123
 20
70.769
 30
0.0
 11
58.6123
 21
67.4673
 31
0.0
  0
LINE
  8
0
 62
     0
 10
58.6123
 20
67.4673
 30
0.0
 11
59.811
 21
67.4673
 31
0.0
  0
LINE
  8
0
 62
     0
 10
59.811
 20
67.4673
 30
0.0
 11
59.811
 21
65.7433
 31
0.0
  0
LINE
  8
0
 62
     0
 10
59.811
 20
65.7433
 30
0.0
 11
64.2814
 21
65.7433
 31
0.0
  0
LINE
  8
0
 62
     0
 10
64.2814
 20
65.7433
 30
0.0
 11
64.2814
 21
64.2179
 31
0.0
  0
LINE
  8
0
 62
     0
 10
64.2814
 20
64.2179
 30
0.0
 11
63.682
 21
64.2179
 31
0.0
  0
LINE
  8
0
 62
     0
 10
63.682
 20
64.2179
 30
0.0
 11
63.682
 21
65.0187
 31
0.0
  0
LINE
  8
0
 62
     0
 10
63.682
 20
65.0187
 30
0.0
 11
60.5801
 21
65.0187
 31
0.0
  0
LINE
  8
0
 62
     0
 10
60.5801
 20
65.0187
 30
0.0
 11
60.5801
 21
64.2179
 31
0.0
  0
LINE
  8
0
 62
     0
 10
60.5801
 20
64.2179
 30
0.0
 11
59.581
 21
64.2179
 31
0.0
  0
LINE
  8
0
 62
     0
 10
59.581
 20
64.2179
 30
0.0
 11
59.581
 21
50.2172
 31
0.0
  0
LINE
  8
0
 62
     0
 10
59.581
 20
50.2172
 30
0.0
 11
60.5801
 21
50.2172
 31
0.0
  0
LINE
  8
0
 62
     0
 10
60.5801
 20
50.2172
 30
0.0
 11
60.5801
 21
49.4178
 31
0.0
  0
LINE
  8
0
 62
     0
 10
60.5801
 20
49.4178
 30
0.0
 11
63.682
 21
49.4178
 31
0.0
  0
LINE
  8
0
 62
     0
 10
63.682
 20
49.4178
 30
0.0
 11
63.682
 21
50.2172
 31
0.0
  0
LINE
  8
0
 62
     0
 10
63.682
 20
50.2172
 30
0.0
 11
64.2814
 21
50.2172
 31
0.0
  0
LINE
  8
0
 62
     0
 10
64.2814
 20
50.2172
 30
0.0
 11
64.2814
 21
48.6929
 31
0.0
  0
LINE
  8
0
 62
     0
 10
64.2814
 20
48.6929
 30
0.0
 11
59.811
 21
48.6929
 31
0.0
  0
LINE
  8
0
 62
     0
 10
59.811
 20
48.6929
 30
0.0
 11
59.811
 21
46.9678
 31
0.0
  0
LINE
  8
0
 62
     0
 10
59.811
 20
46.9678
 30
0.0
 11
58.6123
 21
46.9678
 31
0.0
  0
LINE
  8
0
 62
     0
 10
58.6123
 20
46.9678
 30
0.0
 11
58.6123
 21
43.6672
 31
0.0
  0
LINE
  8
0
 62
     0
 10
58.6123
 20
43.6672
 30
0.0
 11
59.811
 21
43.6672
 31
0.0
  0
LINE
  8
0
 62
     0
 10
59.811
 20
43.6672
 30
0.0
 11
59.811
 21
41.9435
 31
0.0
  0
LINE
  8
0
 62
     0
 10
59.811
 20
41.9435
 30
0.0
 11
66.0809
 21
41.9435
 31
0.0
  0
LINE
  8
0
 62
     0
 10
66.0809
 20
41.9435
 30
0.0
 11
66.0809
 21
41.118
 31
0.0
  0
LINE
  8
0
 62
     0
 10
66.0809
 20
41.118
 30
0.0
 11
68.8813
 21
41.118
 31
0.0
  0
LINE
  8
0
 62
     0
 10
68.8813
 20
41.118
 30
0.0
 11
68.8813
 21
41.9435
 31
0.0
  0
LINE
  8
0
 62
     0
 10
68.8813
 20
41.9435
 30
0.0
 11
72.1113
 21
41.9435
 31
0.0
  0
LINE
  8
0
 62
     0
 10
72.1113
 20
41.9435
 30
0.0
 11
72.1113
 21
48.6929
 31
0.0
  0
LINE
  8
0
 62
     0
 10
72.1113
 20
48.6929
 30
0.0
 11
68.8813
 21
48.6929
 31
0.0
  0
LINE
  8
0
 62
     0
 10
68.8813
 20
48.6929
 30
0.0
 11
68.8813
 21
50.2172
 31
0.0
  0
LINE
  8
0
 62
     0
 10
68.8813
 20
50.2172
 30
0.0
 11
69.4821
 21
50.2172
 31
0.0
  0
LINE
  8
0
 62
     0
 10
69.4821
 20
50.2172
 30
0.0
 11
69.4821
 21
49.4178
 31
0.0
  0
LINE
  8
0
 62
     0
 10
69.4821
 20
49.4178
 30
0.0
 11
72.5798
 21
49.4178
 31
0.0
  0
LINE
  8
0
 62
     0
 10
72.5798
 20
49.4178
 30
0.0
 11
72.5798
 21
50.2172
 31
0.0
  0
LINE
  8
0
 62
     0
 10
72.5798
 20
50.2172
 30
0.0
 11
73.5803
 21
50.2172
 31
0.0
  0
LINE
  8
0
 62
     0
 10
73.5803
 20
50.2172
 30
0.0
 11
73.5803
 21
64.2179
 31
0.0
  0
LINE
  8
0
 62
     0
 10
73.5803
 20
64.2179
 30
0.0
 11
72.5798
 21
64.2179
 31
0.0
  0
LINE
  8
0
 62
     0
 10
72.5798
 20
64.2179
 30
0.0
 11
72.5798
 21
65.0187
 31
0.0
  0
LINE
  8
0
 62
     0
 10
72.5798
 20
65.0187
 30
0.0
 11
69.4821
 21
65.0187
 31
0.0
  0
LINE
  8
0
 62
     0
 10
69.4821
 20
65.0187
 30
0.0
 11
69.4821
 21
64.2179
 31
0.0
  0
LINE
  8
0
 62
     0
 10
69.4821
 20
64.2179
 30
0.0
 11
68.8813
 21
64.2179
 31
0.0
  0
LINE
  8
0
 62
     0
 10
68.8813
 20
64.2179
 30
0.0
 11
68.8813
 21
65.7433
 31
0.0
  0
LINE
  8
0
 62
     0
 10
68.8813
 20
65.7433
 30
0.0
 11
72.1113
 21
65.7433
 31
0.0
  0
LINE
  8
0
 62
     0
 10
72.1113
 20
65.7433
 30
0.0
 11
72.1113
 21
72.493
 31
0.0
  0
LINE
  8
0
 62
     0
 10
72.1113
 20
72.493
 30
0.0
 11
68.8813
 21
72.493
 31
0.0
  0
LINE
  8
0
 62
     0
 10
68.8813
 20
72.493
 30
0.0
 11
68.8813
 21
73.3185
 31
0.0
  0
LINE
  8
0
 62
     0
 10
68.8813
 20
73.3185
 30
0.0
 11
66.0809
 21
73.3185
 31
0.0
  0
LINE
  8
0
 62
     0
 10
40.531
 20
73.7429
 30
0.0
 11
40.531
 21
72.7438
 31
0.0
  0
LINE
  8
0
 62
     0
 10
40.531
 20
72.7438
 30
0.0
 11
39.7316
 21
72.7438
 31
0.0
  0
LINE
  8
0
 62
     0
 10
39.7316
 20
72.7438
 30
0.0
 11
39.7316
 21
69.6433
 31
0.0
  0
LINE
  8
0
 62
     0
 10
39.7316
 20
69.6433
 30
0.0
 11
40.531
 21
69.6433
 31
0.0
  0
LINE
  8
0
 62
     0
 10
40.531
 20
69.6433
 30
0.0
 11
40.531
 21
63.8433
 31
0.0
  0
LINE
  8
0
 62
     0
 10
40.531
 20
63.8433
 30
0.0
 11
39.7316
 21
63.8433
 31
0.0
  0
LINE
  8
0
 62
     0
 10
39.7316
 20
63.8433
 30
0.0
 11
39.7316
 21
60.7441
 31
0.0
  0
LINE
  8
0
 62
     0
 10
39.7316
 20
60.7441
 30
0.0
 11
40.531
 21
60.7441
 31
0.0
  0
LINE
  8
0
 62
     0
 10
40.531
 20
60.7441
 30
0.0
 11
40.531
 21
59.7436
 31
0.0
  0
LINE
  8
0
 62
     0
 10
40.531
 20
59.7436
 30
0.0
 11
54.5317
 21
59.7436
 31
0.0
  0
LINE
  8
0
 62
     0
 10
54.5317
 20
59.7436
 30
0.0
 11
54.5317
 21
60.7441
 31
0.0
  0
LINE
  8
0
 62
     0
 10
54.5317
 20
60.7441
 30
0.0
 11
55.3311
 21
60.7441
 31
0.0
  0
LINE
  8
0
 62
     0
 10
55.3311
 20
60.7441
 30
0.0
 11
55.3311
 21
63.8433
 31
0.0
  0
LINE
  8
0
 62
     0
 10
55.3311
 20
63.8433
 30
0.0
 11
54.5317
 21
63.8433
 31
0.0
  0
LINE
  8
0
 62
     0
 10
54.5317
 20
63.8433
 30
0.0
 11
54.5317
 21
69.6433
 31
0.0
  0
LINE
  8
0
 62
     0
 10
54.5317
 20
69.6433
 30
0.0
 11
55.3311
 21
69.6433
 31
0.0
  0
LINE
  8
0
 62
     0
 10
55.3311
 20
69.6433
 30
0.0
 11
55.3311
 21
72.7438
 31
0.0
  0
LINE
  8
0
 62
     0
 10
55.3311
 20
72.7438
 30
0.0
 11
54.5317
 21
72.7438
 31
0.0
  0
LINE
  8
0
 62
     0
 10
54.5317
 20
72.7438
 30
0.0
 11
54.5317
 21
73.7429
 31
0.0
  0
LINE
  8
0
 62
     0
 10
54.5317
 20
73.7429
 30
0.0
 11
40.531
 21
73.7429
 31
0.0
  0
LINE
  8
0
 62
     0
 10
21.4809
 20
73.7429
 30
0.0
 11
21.4809
 21
72.7438
 31
0.0
  0
LINE
  8
0
 62
     0
 10
21.4809
 20
72.7438
 30
0.0
 11
20.6816
 21
72.7438
 31
0.0
  0
LINE
  8
0
 62
     0
 10
20.6816
 20
72.7438
 30
0.0
 11
20.6816
 21
69.6433
 31
0.0
  0
LINE
  8
0
 62
     0
 10
20.6816
 20
69.6433
 30
0.0
 11
21.4809
 21
69.6433
 31
0.0
  0
LINE
  8
0
 62
     0
 10
21.4809
 20
69.6433
 30
0.0
 11
21.4809
 21
67.8134
 31
0.0
  0
LINE
  8
0
 62
     0
 10
21.4809
 20
67.8134
 30
0.0
 11
21.3293
 21
67.5157
 31
0.0
  0
LINE
  8
0
 62
     0
 10
21.3293
 20
67.5157
 30
0.0
 11
21.2053
 21
66.7413
 31
0.0
  0
LINE
  8
0
 62
     0
 10
21.2053
 20
66.7413
 30
0.0
 11
21.3293
 21
65.9709
 31
0.0
  0
LINE
  8
0
 62
     0
 10
21.3293
 20
65.9709
 30
0.0
 11
21.4809
 21
65.6731
 31
0.0
  0
LINE
  8
0
 62
     0
 10
21.4809
 20
65.6731
 30
0.0
 11
21.4809
 21
63.8433
 31
0.0
  0
LINE
  8
0
 62
     0
 10
21.4809
 20
63.8433
 30
0.0
 11
20.6816
 21
63.8433
 31
0.0
  0
LINE
  8
0
 62
     0
 10
20.6816
 20
63.8433
 30
0.0
 11
20.6816
 21
60.7441
 31
0.0
  0
LINE
  8
0
 62
     0
 10
20.6816
 20
60.7441
 30
0.0
 11
21.4809
 21
60.7441
 31
0.0
  0
LINE
  8
0
 62
     0
 10
21.4809
 20
60.7441
 30
0.0
 11
21.4809
 21
59.7436
 31
0.0
  0
LINE
  8
0
 62
     0
 10
21.4809
 20
59.7436
 30
0.0
 11
35.4817
 21
59.7436
 31
0.0
  0
LINE
  8
0
 62
     0
 10
35.4817
 20
59.7436
 30
0.0
 11
35.4817
 21
60.7441
 31
0.0
  0
LINE
  8
0
 62
     0
 10
35.4817
 20
60.7441
 30
0.0
 11
36.2811
 21
60.7441
 31
0.0
  0
LINE
  8
0
 62
     0
 10
36.2811
 20
60.7441
 30
0.0
 11
36.2811
 21
63.8433
 31
0.0
  0
LINE
  8
0
 62
     0
 10
36.2811
 20
63.8433
 30
0.0
 11
35.4817
 21
63.8433
 31
0.0
  0
LINE
  8
0
 62
     0
 10
35.4817
 20
63.8433
 30
0.0
 11
35.4817
 21
69.6433
 31
0.0
  0
LINE
  8
0
 62
     0
 10
35.4817
 20
69.6433
 30
0.0
 11
36.2811
 21
69.6433
 31
0.0
  0
LINE
  8
0
 62
     0
 10
36.2811
 20
69.6433
 30
0.0
 11
36.2811
 21
72.7438
 31
0.0
  0
LINE
  8
0
 62
     0
 10
36.2811
 20
72.7438
 30
0.0
 11
35.4817
 21
72.7438
 31
0.0
  0
LINE
  8
0
 62
     0
 10
35.4817
 20
72.7438
 30
0.0
 11
35.4817
 21
73.7429
 31
0.0
  0
LINE
  8
0
 62
     0
 10
35.4817
 20
73.7429
 30
0.0
 11
21.4809
 21
73.7429
 31
0.0
  0
LINE
  8
0
 62
     0
 10
2.43086
 20
73.7429
 30
0.0
 11
2.43086
 21
72.7438
 31
0.0
  0
LINE
  8
0
 62
     0
 10
2.43086
 20
72.7438
 30
0.0
 11
1.6316
 21
72.7438
 31
0.0
  0
LINE
  8
0
 62
     0
 10
1.6316
 20
72.7438
 30
0.0
 11
1.6316
 21
69.6433
 31
0.0
  0
LINE
  8
0
 62
     0
 10
1.6316
 20
69.6433
 30
0.0
 11
2.43086
 21
69.6433
 31
0.0
  0
LINE
  8
0
 62
     0
 10
2.43086
 20
69.6433
 30
0.0
 11
2.43086
 21
63.8433
 31
0.0
  0
LINE
  8
0
 62
     0
 10
2.43086
 20
63.8433
 30
0.0
 11
1.6316
 21
63.8433
 31
0.0
  0
LINE
  8
0
 62
     0
 10
1.6316
 20
63.8433
 30
0.0
 11
1.6316
 21
60.7441
 31
0.0
  0
LINE
  8
0
 62
     0
 10
1.6316
 20
60.7441
 30
0.0
 11
2.43086
 21
60.7441
 31
0.0
  0
LINE
  8
0
 62
     0
 10
2.43086
 20
60.7441
 30
0.0
 11
2.43086
 21
59.7436
 31
0.0
  0
LINE
  8
0
 62
     0
 10
2.43086
 20
59.7436
 30
0.0
 11
16.4317
 21
59.7436
 31
0.0
  0
LINE
  8
0
 62
     0
 10
16.4317
 20
59.7436
 30
0.0
 11
16.4317
 21
60.7441
 31
0.0
  0
LINE
  8
0
 62
     0
 10
16.4317
 20
60.7441
 30
0.0
 11
17.231
 21
60.7441
 31
0.0
  0
LINE
  8
0
 62
     0
 10
17.231
 20
60.7441
 30
0.0
 11
17.231
 21
63.8433
 31
0.0
  0
LINE
  8
0
 62
     0
 10
17.231
 20
63.8433
 30
0.0
 11
16.4317
 21
63.8433
 31
0.0
  0
LINE
  8
0
 62
     0
 10
16.4317
 20
63.8433
 30
0.0
 11
16.4317
 21
69.6433
 31
0.0
  0
LINE
  8
0
 62
     0
 10
16.4317
 20
69.6433
 30
0.0
 11
17.231
 21
69.6433
 31
0.0
  0
LINE
  8
0
 62
     0
 10
17.231
 20
69.6433
 30
0.0
 11
17.231
 21
72.7438
 31
0.0
  0
LINE
  8
0
 62
     0
 10
17.231
 20
72.7438
 30
0.0
 11
16.4317
 21
72.7438
 31
0.0
  0
LINE
  8
0
 62
     0
 10
16.4317
 20
72.7438
 30
0.0
 11
16.4317
 21
73.7429
 31
0.0
  0
LINE
  8
0
 62
     0
 10
16.4317
 20
73.7429
 30
0.0
 11
2.43086
 21
73.7429
 31
0.0
  0
LINE
  8
0
 62
     0
 10
59.581
 20
92.7929
 30
0.0
 11
59.581
 21
91.7924
 31
0.0
  0
LINE
  8
0
 62
     0
 10
59.581
 20
91.7924
 30
0.0
 11
58.7816
 21
91.7924
 31
0.0
  0
LINE
  8
0
 62
     0
 10
58.7816
 20
91.7924
 30
0.0
 11
58.7816
 21
88.6933
 31
0.0
  0
LINE
  8
0
 62
     0
 10
58.7816
 20
88.6933
 30
0.0
 11
59.581
 21
88.6933
 31
0.0
  0
LINE
  8
0
 62
     0
 10
59.581
 20
88.6933
 30
0.0
 11
59.581
 21
82.8933
 31
0.0
  0
LINE
  8
0
 62
     0
 10
59.581
 20
82.8933
 30
0.0
 11
58.7816
 21
82.8933
 31
0.0
  0
LINE
  8
0
 62
     0
 10
58.7816
 20
82.8933
 30
0.0
 11
58.7816
 21
79.7927
 31
0.0
  0
LINE
  8
0
 62
     0
 10
58.7816
 20
79.7927
 30
0.0
 11
59.581
 21
79.7927
 31
0.0
  0
LINE
  8
0
 62
     0
 10
59.581
 20
79.7927
 30
0.0
 11
59.581
 21
78.7922
 31
0.0
  0
LINE
  8
0
 62
     0
 10
59.581
 20
78.7922
 30
0.0
 11
73.5803
 21
78.7922
 31
0.0
  0
LINE
  8
0
 62
     0
 10
73.5803
 20
78.7922
 30
0.0
 11
73.5803
 21
79.7927
 31
0.0
  0
LINE
  8
0
 62
     0
 10
73.5803
 20
79.7927
 30
0.0
 11
74.3811
 21
79.7927
 31
0.0
  0
LINE
  8
0
 62
     0
 10
74.3811
 20
79.7927
 30
0.0
 11
74.3811
 21
82.8933
 31
0.0
  0
LINE
  8
0
 62
     0
 10
74.3811
 20
82.8933
 30
0.0
 11
73.5803
 21
82.8933
 31
0.0
  0
LINE
  8
0
 62
     0
 10
73.5803
 20
82.8933
 30
0.0
 11
73.5803
 21
88.6933
 31
0.0
  0
LINE
  8
0
 62
     0
 10
73.5803
 20
88.6933
 30
0.0
 11
74.3811
 21
88.6933
 31
0.0
  0
LINE
  8
0
 62
     0
 10
74.3811
 20
88.6933
 30
0.0
 11
74.3811
 21
91.7924
 31
0.0
  0
LINE
  8
0
 62
     0
 10
74.3811
 20
91.7924
 30
0.0
 11
73.5803
 21
91.7924
 31
0.0
  0
LINE
  8
0
 62
     0
 10
73.5803
 20
91.7924
 30
0.0
 11
73.5803
 21
92.7929
 31
0.0
  0
LINE
  8
0
 62
     0
 10
73.5803
 20
92.7929
 30
0.0
 11
59.581
 21
92.7929
 31
0.0
  0
LINE
  8
0
 62
     0
 10
40.531
 20
92.7929
 30
0.0
 11
40.531
 21
91.7924
 31
0.0
  0
LINE
  8
0
 62
     0
 10
40.531
 20
91.7924
 30
0.0
 11
39.7316
 21
91.7924
 31
0.0
  0
LINE
  8
0
 62
     0
 10
39.7316
 20
91.7924
 30
0.0
 11
39.7316
 21
88.6933
 31
0.0
  0
LINE
  8
0
 62
     0
 10
39.7316
 20
88.6933
 30
0.0
 11
40.531
 21
88.6933
 31
0.0
  0
LINE
  8
0
 62
     0
 10
40.531
 20
88.6933
 30
0.0
 11
40.531
 21
82.8933
 31
0.0
  0
LINE
  8
0
 62
     0
 10
40.531
 20
82.8933
 30
0.0
 11
39.7316
 21
82.8933
 31
0.0
  0
LINE
  8
0
 62
     0
 10
39.7316
 20
82.8933
 30
0.0
 11
39.7316
 21
79.7927
 31
0.0
  0
LINE
  8
0
 62
     0
 10
39.7316
 20
79.7927
 30
0.0
 11
40.531
 21
79.7927
 31
0.0
  0
LINE
  8
0
 62
     0
 10
40.531
 20
79.7927
 30
0.0
 11
40.531
 21
78.7922
 31
0.0
  0
LINE
  8
0
 62
     0
 10
40.531
 20
78.7922
 30
0.0
 11
54.5317
 21
78.7922
 31
0.0
  0
LINE
  8
0
 62
     0
 10
54.5317
 20
78.7922
 30
0.0
 11
54.5317
 21
79.7927
 31
0.0
  0
LINE
  8
0
 62
     0
 10
54.5317
 20
79.7927
 30
0.0
 11
55.3311
 21
79.7927
 31
0.0
  0
LINE
  8
0
 62
     0
 10
55.3311
 20
79.7927
 30
0.0
 11
55.3311
 21
82.8933
 31
0.0
  0
LINE
  8
0
 62
     0
 10
55.3311
 20
82.8933
 30
0.0
 11
54.5317
 21
82.8933
 31
0.0
  0
LINE
  8
0
 62
     0
 10
54.5317
 20
82.8933
 30
0.0
 11
54.5317
 21
88.6933
 31
0.0
  0
LINE
  8
0
 62
     0
 10
54.5317
 20
88.6933
 30
0.0
 11
55.3311
 21
88.6933
 31
0.0
  0
LINE
  8
0
 62
     0
 10
55.3311
 20
88.6933
 30
0.0
 11
55.3311
 21
91.7924
 31
0.0
  0
LINE
  8
0
 62
     0
 10
55.3311
 20
91.7924
 30
0.0
 11
54.5317
 21
91.7924
 31
0.0
  0
LINE
  8
0
 62
     0
 10
54.5317
 20
91.7924
 30
0.0
 11
54.5317
 21
92.7929
 31
0.0
  0
LINE
  8
0
 62
     0
 10
54.5317
 20
92.7929
 30
0.0
 11
40.531
 21
92.7929
 31
0.0
  0
LINE
  8
0
 62
     0
 10
21.4809
 20
92.7929
 30
0.0
 11
21.4809
 21
91.7924
 31
0.0
  0
LINE
  8
0
 62
     0
 10
21.4809
 20
91.7924
 30
0.0
 11
20.6816
 21
91.7924
 31
0.0
  0
LINE
  8
0
 62
     0
 10
20.6816
 20
91.7924
 30
0.0
 11
20.6816
 21
88.6933
 31
0.0
  0
LINE
  8
0
 62
     0
 10
20.6816
 20
88.6933
 30
0.0
 11
21.4809
 21
88.6933
 31
0.0
  0
LINE
  8
0
 62
     0
 10
21.4809
 20
88.6933
 30
0.0
 11
21.4809
 21
82.8933
 31
0.0
  0
LINE
  8
0
 62
     0
 10
21.4809
 20
82.8933
 30
0.0
 11
20.6816
 21
82.8933
 31
0.0
  0
LINE
  8
0
 62
     0
 10
20.6816
 20
82.8933
 30
0.0
 11
20.6816
 21
79.7927
 31
0.0
  0
LINE
  8
0
 62
     0
 10
20.6816
 20
79.7927
 30
0.0
 11
21.4809
 21
79.7927
 31
0.0
  0
LINE
  8
0
 62
     0
 10
21.4809
 20
79.7927
 30
0.0
 11
21.4809
 21
78.7922
 31
0.0
  0
LINE
  8
0
 62
     0
 10
21.4809
 20
78.7922
 30
0.0
 11
35.4817
 21
78.7922
 31
0.0
  0
LINE
  8
0
 62
     0
 10
35.4817
 20
78.7922
 30
0.0
 11
35.4817
 21
79.7927
 31
0.0
  0
LINE
  8
0
 62
     0
 10
35.4817
 20
79.7927
 30
0.0
 11
36.2811
 21
79.7927
 31
0.0
  0
LINE
  8
0
 62
     0
 10
36.2811
 20
79.7927
 30
0.0
 11
36.2811
 21
82.8933
 31
0.0
  0
LINE
  8
0
 62
     0
 10
36.2811
 20
82.8933
 30
0.0
 11
35.4817
 21
82.8933
 31
0.0
  0
LINE
  8
0
 62
     0
 10
35.4817
 20
82.8933
 30
0.0
 11
35.4817
 21
88.6933
 31
0.0
  0
LINE
  8
0
 62
     0
 10
35.4817
 20
88.6933
 30
0.0
 11
36.2811
 21
88.6933
 31
0.0
  0
LINE
  8
0
 62
     0
 10
36.2811
 20
88.6933
 30
0.0
 11
36.2811
 21
91.7924
 31
0.0
  0
LINE
  8
0
 62
     0
 10
36.2811
 20
91.7924
 30
0.0
 11
35.4817
 21
91.7924
 31
0.0
  0
LINE
  8
0
 62
     0
 10
35.4817
 20
91.7924
 30
0.0
 11
35.4817
 21
92.7929
 31
0.0
  0
LINE
  8
0
 62
     0
 10
35.4817
 20
92.7929
 30
0.0
 11
21.4809
 21
92.7929
 31
0.0
  0
LINE
  8
0
 62
     0
 10
2.43086
 20
92.7929
 30
0.0
 11
2.43086
 21
91.7924
 31
0.0
  0
LINE
  8
0
 62
     0
 10
2.43086
 20
91.7924
 30
0.0
 11
1.6316
 21
91.7924
 31
0.0
  0
LINE
  8
0
 62
     0
 10
1.6316
 20
91.7924
 30
0.0
 11
1.6316
 21
88.6933
 31
0.0
  0
LINE
  8
0
 62
     0
 10
1.6316
 20
88.6933
 30
0.0
 11
2.43086
 21
88.6933
 31
0.0
  0
LINE
  8
0
 62
     0
 10
2.43086
 20
88.6933
 30
0.0
 11
2.43086
 21
82.8933
 31
0.0
  0
LINE
  8
0
 62
     0
 10
2.43086
 20
82.8933
 30
0.0
 11
1.6316
 21
82.8933
 31
0.0
  0
LINE
  8
0
 62
     0
 10
1.6316
 20
82.8933
 30
0.0
 11
1.6316
 21
79.7927
 31
0.0
  0
LINE
  8
0
 62
     0
 10
1.6316
 20
79.7927
 30
0.0
 11
2.43086
 21
79.7927
 31
0.0
  0
LINE
  8
0
 62
     0
 10
2.43086
 20
79.7927
 30
0.0
 11
2.43086
 21
78.7922
 31
0.0
  0
LINE
  8
0
 62
     0
 10
2.43086
 20
78.7922
 30
0.0
 11
16.4317
 21
78.7922
 31
0.0
  0
LINE
  8
0
 62
     0
 10
16.4317
 20
78.7922
 30
0.0
 11
16.4317
 21
79.7927
 31
0.0
  0
LINE
  8
0
 62
     0
 10
16.4317
 20
79.7927
 30
0.0
 11
17.231
 21
79.7927
 31
0.0
  0
LINE
  8
0
 62
     0
 10
17.231
 20
79.7927
 30
0.0
 11
17.231
 21
82.8933
 31
0.0
  0
LINE
  8
0
 62
     0
 10
17.231
 20
82.8933
 30
0.0
 11
16.4317
 21
82.8933
 31
0.0
  0
LINE
  8
0
 62
     0
 10
16.4317
 20
82.8933
 30
0.0
 11
16.4317
 21
88.6933
 31
0.0
  0
LINE
  8
0
 62
     0
 10
16.4317
 20
88.6933
 30
0.0
 11
17.231
 21
88.6933
 31
0.0
  0
LINE
  8
0
 62
     0
 10
17.231
 20
88.6933
 30
0.0
 11
17.231
 21
91.7924
 31
0.0
  0
LINE
  8
0
 62
     0
 10
17.231
 20
91.7924
 30
0.0
 11
16.4317
 21
91.7924
 31
0.0
  0
LINE
  8
0
 62
     0
 10
16.4317
 20
91.7924
 30
0.0
 11
16.4317
 21
92.7929
 31
0.0
  0
LINE
  8
0
 62
     0
 10
16.4317
 20
92.7929
 30
0.0
 11
2.43086
 21
92.7929
 31
0.0
  0
LINE
  8
0
 62
     0
 10
59.581
 20
111.843
 30
0.0
 11
59.581
 21
110.844
 31
0.0
  0
LINE
  8
0
 62
     0
 10
59.581
 20
110.844
 30
0.0
 11
58.7816
 21
110.844
 31
0.0
  0
LINE
  8
0
 62
     0
 10
58.7816
 20
110.844
 30
0.0
 11
58.7816
 21
107.743
 31
0.0
  0
LINE
  8
0
 62
     0
 10
58.7816
 20
107.743
 30
0.0
 11
59.581
 21
107.743
 31
0.0
  0
LINE
  8
0
 62
     0
 10
59.581
 20
107.743
 30
0.0
 11
59.581
 21
101.943
 31
0.0
  0
LINE
  8
0
 62
     0
 10
59.581
 20
101.943
 30
0.0
 11
58.7816
 21
101.943
 31
0.0
  0
LINE
  8
0
 62
     0
 10
58.7816
 20
101.943
 30
0.0
 11
58.7816
 21
98.8441
 31
0.0
  0
LINE
  8
0
 62
     0
 10
58.7816
 20
98.8441
 30
0.0
 11
59.581
 21
98.8441
 31
0.0
  0
LINE
  8
0
 62
     0
 10
59.581
 20
98.8441
 30
0.0
 11
59.581
 21
97.8436
 31
0.0
  0
LINE
  8
0
 62
     0
 10
59.581
 20
97.8436
 30
0.0
 11
73.5803
 21
97.8436
 31
0.0
  0
LINE
  8
0
 62
     0
 10
73.5803
 20
97.8436
 30
0.0
 11
73.5803
 21
98.8441
 31
0.0
  0
LINE
  8
0
 62
     0
 10
73.5803
 20
98.8441
 30
0.0
 11
74.3811
 21
98.8441
 31
0.0
  0
LINE
  8
0
 62
     0
 10
74.3811
 20
98.8441
 30
0.0
 11
74.3811
 21
101.943
 31
0.0
  0
LINE
  8
0
 62
     0
 10
74.3811
 20
101.943
 30
0.0
 11
73.5803
 21
101.943
 31
0.0
  0
LINE
  8
0
 62
     0
 10
73.5803
 20
101.943
 30
0.0
 11
73.5803
 21
107.743
 31
0.0
  0
LINE
  8
0
 62
     0
 10
73.5803
 20
107.743
 30
0.0
 11
74.3811
 21
107.743
 31
0.0
  0
LINE
  8
0
 62
     0
 10
74.3811
 20
107.743
 30
0.0
 11
74.3811
 21
110.844
 31
0.0
  0
LINE
  8
0
 62
     0
 10
74.3811
 20
110.844
 30
0.0
 11
73.5803
 21
110.844
 31
0.0
  0
LINE
  8
0
 62
     0
 10
73.5803
 20
110.844
 30
0.0
 11
73.5803
 21
111.843
 31
0.0
  0
LINE
  8
0
 62
     0
 10
73.5803
 20
111.843
 30
0.0
 11
59.581
 21
111.843
 31
0.0
  0
LINE
  8
0
 62
     0
 10
40.531
 20
111.843
 30
0.0
 11
40.531
 21
110.844
 31
0.0
  0
LINE
  8
0
 62
     0
 10
40.531
 20
110.844
 30
0.0
 11
39.7316
 21
110.844
 31
0.0
  0
LINE
  8
0
 62
     0
 10
39.7316
 20
110.844
 30
0.0
 11
39.7316
 21
107.743
 31
0.0
  0
LINE
  8
0
 62
     0
 10
39.7316
 20
107.743
 30
0.0
 11
40.531
 21
107.743
 31
0.0
  0
LINE
  8
0
 62
     0
 10
40.531
 20
107.743
 30
0.0
 11
40.531
 21
101.943
 31
0.0
  0
LINE
  8
0
 62
     0
 10
40.531
 20
101.943
 30
0.0
 11
39.7316
 21
101.943
 31
0.0
  0
LINE
  8
0
 62
     0
 10
39.7316
 20
101.943
 30
0.0
 11
39.7316
 21
98.8441
 31
0.0
  0
LINE
  8
0
 62
     0
 10
39.7316
 20
98.8441
 30
0.0
 11
40.531
 21
98.8441
 31
0.0
  0
LINE
  8
0
 62
     0
 10
40.531
 20
98.8441
 30
0.0
 11
40.531
 21
97.8436
 31
0.0
  0
LINE
  8
0
 62
     0
 10
40.531
 20
97.8436
 30
0.0
 11
54.5317
 21
97.8436
 31
0.0
  0
LINE
  8
0
 62
     0
 10
54.5317
 20
97.8436
 30
0.0
 11
54.5317
 21
98.8441
 31
0.0
  0
LINE
  8
0
 62
     0
 10
54.5317
 20
98.8441
 30
0.0
 11
55.3311
 21
98.8441
 31
0.0
  0
LINE
  8
0
 62
     0
 10
55.3311
 20
98.8441
 30
0.0
 11
55.3311
 21
101.943
 31
0.0
  0
LINE
  8
0
 62
     0
 10
55.3311
 20
101.943
 30
0.0
 11
54.5317
 21
101.943
 31
0.0
  0
LINE
  8
0
 62
     0
 10
54.5317
 20
101.943
 30
0.0
 11
54.5317
 21
107.743
 31
0.0
  0
LINE
  8
0
 62
     0
 10
54.5317
 20
107.743
 30
0.0
 11
55.3311
 21
107.743
 31
0.0
  0
LINE
  8
0
 62
     0
 10
55.3311
 20
107.743
 30
0.0
 11
55.3311
 21
110.844
 31
0.0
  0
LINE
  8
0
 62
     0
 10
55.3311
 20
110.844
 30
0.0
 11
54.5317
 21
110.844
 31
0.0
  0
LINE
  8
0
 62
     0
 10
54.5317
 20
110.844
 30
0.0
 11
54.5317
 21
111.843
 31
0.0
  0
LINE
  8
0
 62
     0
 10
54.5317
 20
111.843
 30
0.0
 11
40.531
 21
111.843
 31
0.0
  0
LINE
  8
0
 62
     0
 10
21.4809
 20
111.843
 30
0.0
 11
21.4809
 21
110.844
 31
0.0
  0
LINE
  8
0
 62
     0
 10
21.4809
 20
110.844
 30
0.0
 11
20.6816
 21
110.844
 31
0.0
  0
LINE
  8
0
 62
     0
 10
20.6816
 20
110.844
 30
0.0
 11
20.6816
 21
107.743
 31
0.0
  0
LINE
  8
0
 62
     0
 10
20.6816
 20
107.743
 30
0.0
 11
21.4809
 21
107.743
 31
0.0
  0
LINE
  8
0
 62
     0
 10
21.4809
 20
107.743
 30
0.0
 11
21.4809
 21
101.943
 31
0.0
  0
LINE
  8
0
 62
     0
 10
21.4809
 20
101.943
 30
0.0
 11
20.6816
 21
101.943
 31
0.0
  0
LINE
  8
0
 62
     0
 10
20.6816
 20
101.943
 30
0.0
 11
20.6816
 21
98.8441
 31
0.0
  0
LINE
  8
0
 62
     0
 10
20.6816
 20
98.8441
 30
0.0
 11
21.4809
 21
98.8441
 31
0.0
  0
LINE
  8
0
 62
     0
 10
21.4809
 20
98.8441
 30
0.0
 11
21.4809
 21
97.8436
 31
0.0
  0
LINE
  8
0
 62
     0
 10
21.4809
 20
97.8436
 30
0.0
 11
35.4817
 21
97.8436
 31
0.0
  0
LINE
  8
0
 62
     0
 10
35.4817
 20
97.8436
 30
0.0
 11
35.4817
 21
98.8441
 31
0.0
  0
LINE
  8
0
 62
     0
 10
35.4817
 20
98.8441
 30
0.0
 11
36.2811
 21
98.8441
 31
0.0
  0
LINE
  8
0
 62
     0
 10
36.2811
 20
98.8441
 30
0.0
 11
36.2811
 21
101.943
 31
0.0
  0
LINE
  8
0
 62
     0
 10
36.2811
 20
101.943
 30
0.0
 11
35.4817
 21
101.943
 31
0.0
  0
LINE
  8
0
 62
     0
 10
35.4817
 20
101.943
 30
0.0
 11
35.4817
 21
107.743
 31
0.0
  0
LINE
  8
0
 62
     0
 10
35.4817
 20
107.743
 30
0.0
 11
36.2811
 21
107.743
 31
0.0
  0
LINE
  8
0
 62
     0
 10
36.2811
 20
107.743
 30
0.0
 11
36.2811
 21
110.844
 31
0.0
  0
LINE
  8
0
 62
     0
 10
36.2811
 20
110.844
 30
0.0
 11
35.4817
 21
110.844
 31
0.0
  0
LINE
  8
0
 62
     0
 10
35.4817
 20
110.844
 30
0.0
 11
35.4817
 21
111.843
 31
0.0
  0
LINE
  8
0
 62
     0
 10
35.4817
 20
111.843
 30
0.0
 11
21.4809
 21
111.843
 31
0.0
  0
LINE
  8
0
 62
     0
 10
2.43086
 20
111.843
 30
0.0
 11
2.43086
 21
110.844
 31
0.0
  0
LINE
  8
0
 62
     0
 10
2.43086
 20
110.844
 30
0.0
 11
1.6316
 21
110.844
 31
0.0
  0
LINE
  8
0
 62
     0
 10
1.6316
 20
110.844
 30
0.0
 11
1.6316
 21
107.743
 31
0.0
  0
LINE
  8
0
 62
     0
 10
1.6316
 20
107.743
 30
0.0
 11
2.43086
 21
107.743
 31
0.0
  0
LINE
  8
0
 62
     0
 10
2.43086
 20
107.743
 30
0.0
 11
2.43086
 21
101.943
 31
0.0
  0
LINE
  8
0
 62
     0
 10
2.43086
 20
101.943
 30
0.0
 11
1.6316
 21
101.943
 31
0.0
  0
LINE
  8
0
 62
     0
 10
1.6316
 20
101.943
 30
0.0
 11
1.6316
 21
98.8441
 31
0.0
  0
LINE
  8
0
 62
     0
 10
1.6316
 20
98.8441
 30
0.0
 11
2.43086
 21
98.8441
 31
0.0
  0
LINE
  8
0
 62
     0
 10
2.43086
 20
98.8441
 30
0.0
 11
2.43086
 21
97.8436
 31
0.0
  0
LINE
  8
0
 62
     0
 10
2.43086
 20
97.8436
 30
0.0
 11
16.4317
 21
97.8436
 31
0.0
  0
LINE
  8
0
 62
     0
 10
16.4317
 20
97.8436
 30
0.0
 11
16.4317
 21
98.8441
 31
0.0
  0
LINE
  8
0
 62
     0
 10
16.4317
 20
98.8441
 30
0.0
 11
17.231
 21
98.8441
 31
0.0
  0
LINE
  8
0
 62
     0
 10
17.231
 20
98.8441
 30
0.0
 11
17.231
 21
101.943
 31
0.0
  0
LINE
  8
0
 62
     0
 10
17.231
 20
101.943
 30
0.0
 11
16.4317
 21
101.943
 31
0.0
  0
LINE
  8
0
 62
     0
 10
16.4317
 20
101.943
 30
0.0
 11
16.4317
 21
107.743
 31
0.0
  0
LINE
  8
0
 62
     0
 10
16.4317
 20
107.743
 30
0.0
 11
17.231
 21
107.743
 31
0.0
  0
LINE
  8
0
 62
     0
 10
17.231
 20
107.743
 30
0.0
 11
17.231
 21
110.844
 31
0.0
  0
LINE
  8
0
 62
     0
 10
17.231
 20
110.844
 30
0.0
 11
16.4317
 21
110.844
 31
0.0
  0
LINE
  8
0
 62
     0
 10
16.4317
 20
110.844
 30
0.0
 11
16.4317
 21
111.843
 31
0.0
  0
LINE
  8
0
 62
     0
 10
16.4317
 20
111.843
 30
0.0
 11
2.43086
 21
111.843
 31
0.0
  0
LINE
  8
0
 62
     0
 10
59.581
 20
130.893
 30
0.0
 11
59.581
 21
129.894
 31
0.0
  0
LINE
  8
0
 62
     0
 10
59.581
 20
129.894
 30
0.0
 11
58.7816
 21
129.894
 31
0.0
  0
LINE
  8
0
 62
     0
 10
58.7816
 20
129.894
 30
0.0
 11
58.7816
 21
126.793
 31
0.0
  0
LINE
  8
0
 62
     0
 10
58.7816
 20
126.793
 30
0.0
 11
59.581
 21
126.793
 31
0.0
  0
LINE
  8
0
 62
     0
 10
59.581
 20
126.793
 30
0.0
 11
59.581
 21
120.993
 31
0.0
  0
LINE
  8
0
 62
     0
 10
59.581
 20
120.993
 30
0.0
 11
58.7816
 21
120.993
 31
0.0
  0
LINE
  8
0
 62
     0
 10
58.7816
 20
120.993
 30
0.0
 11
58.7816
 21
117.894
 31
0.0
  0
LINE
  8
0
 62
     0
 10
58.7816
 20
117.894
 30
0.0
 11
59.581
 21
117.894
 31
0.0
  0
LINE
  8
0
 62
     0
 10
59.581
 20
117.894
 30
0.0
 11
59.581
 21
116.894
 31
0.0
  0
LINE
  8
0
 62
     0
 10
59.581
 20
116.894
 30
0.0
 11
73.5803
 21
116.894
 31
0.0
  0
LINE
  8
0
 62
     0
 10
73.5803
 20
116.894
 30
0.0
 11
73.5803
 21
117.894
 31
0.0
  0
LINE
  8
0
 62
     0
 10
73.5803
 20
117.894
 30
0.0
 11
74.3811
 21
117.894
 31
0.0
  0
LINE
  8
0
 62
     0
 10
74.3811
 20
117.894
 30
0.0
 11
74.3811
 21
120.993
 31
0.0
  0
LINE
  8
0
 62
     0
 10
74.3811
 20
120.993
 30
0.0
 11
73.5803
 21
120.993
 31
0.0
  0
LINE
  8
0
 62
     0
 10
73.5803
 20
120.993
 30
0.0
 11
73.5803
 21
126.793
 31
0.0
  0
LINE
  8
0
 62
     0
 10
73.5803
 20
126.793
 30
0.0
 11
74.3811
 21
126.793
 31
0.0
  0
LINE
  8
0
 62
     0
 10
74.3811
 20
126.793
 30
0.0
 11
74.3811
 21
129.894
 31
0.0
  0
LINE
  8
0
 62
     0
 10
74.3811
 20
129.894
 30
0.0
 11
73.5803
 21
129.894
 31
0.0
  0
LINE
  8
0
 62
     0
 10
73.5803
 20
129.894
 30
0.0
 11
73.5803
 21
130.893
 31
0.0
  0
LINE
  8
0
 62
     0
 10
73.5803
 20
130.893
 30
0.0
 11
59.581
 21
130.893
 31
0.0
  0
LINE
  8
0
 62
     0
 10
40.531
 20
130.893
 30
0.0
 11
40.531
 21
129.894
 31
0.0
  0
LINE
  8
0
 62
     0
 10
40.531
 20
129.894
 30
0.0
 11
39.7316
 21
129.894
 31
0.0
  0
LINE
  8
0
 62
     0
 10
39.7316
 20
129.894
 30
0.0
 11
39.7316
 21
126.793
 31
0.0
  0
LINE
  8
0
 62
     0
 10
39.7316
 20
126.793
 30
0.0
 11
40.531
 21
126.793
 31
0.0
  0
LINE
  8
0
 62
     0
 10
40.531
 20
126.793
 30
0.0
 11
40.531
 21
120.993
 31
0.0
  0
LINE
  8
0
 62
     0
 10
40.531
 20
120.993
 30
0.0
 11
39.7316
 21
120.993
 31
0.0
  0
LINE
  8
0
 62
     0
 10
39.7316
 20
120.993
 30
0.0
 11
39.7316
 21
117.894
 31
0.0
  0
LINE
  8
0
 62
     0
 10
39.7316
 20
117.894
 30
0.0
 11
40.531
 21
117.894
 31
0.0
  0
LINE
  8
0
 62
     0
 10
40.531
 20
117.894
 30
0.0
 11
40.531
 21
116.894
 31
0.0
  0
LINE
  8
0
 62
     0
 10
40.531
 20
116.894
 30
0.0
 11
54.5317
 21
116.894
 31
0.0
  0
LINE
  8
0
 62
     0
 10
54.5317
 20
116.894
 30
0.0
 11
54.5317
 21
117.894
 31
0.0
  0
LINE
  8
0
 62
     0
 10
54.5317
 20
117.894
 30
0.0
 11
55.3311
 21
117.894
 31
0.0
  0
LINE
  8
0
 62
     0
 10
55.3311
 20
117.894
 30
0.0
 11
55.3311
 21
120.993
 31
0.0
  0
LINE
  8
0
 62
     0
 10
55.3311
 20
120.993
 30
0.0
 11
54.5317
 21
120.993
 31
0.0
  0
LINE
  8
0
 62
     0
 10
54.5317
 20
120.993
 30
0.0
 11
54.5317
 21
126.793
 31
0.0
  0
LINE
  8
0
 62
     0
 10
54.5317
 20
126.793
 30
0.0
 11
55.3311
 21
126.793
 31
0.0
  0
LINE
  8
0
 62
     0
 10
55.3311
 20
126.793
 30
0.0
 11
55.3311
 21
129.894
 31
0.0
  0
LINE
  8
0
 62
     0
 10
55.3311
 20
129.894
 30
0.0
 11
54.5317
 21
129.894
 31
0.0
  0
LINE
  8
0
 62
     0
 10
54.5317
 20
129.894
 30
0.0
 11
54.5317
 21
130.893
 31
0.0
  0
LINE
  8
0
 62
     0
 10
54.5317
 20
130.893
 30
0.0
 11
40.531
 21
130.893
 31
0.0
  0
LINE
  8
0
 62
     0
 10
21.4809
 20
130.893
 30
0.0
 11
21.4809
 21
129.894
 31
0.0
  0
LINE
  8
0
 62
     0
 10
21.4809
 20
129.894
 30
0.0
 11
20.6816
 21
129.894
 31
0.0
  0
LINE
  8
0
 62
     0
 10
20.6816
 20
129.894
 30
0.0
 11
20.6816
 21
126.793
 31
0.0
  0
LINE
  8
0
 62
     0
 10
20.6816
 20
126.793
 30
0.0
 11
21.4809
 21
126.793
 31
0.0
  0
LINE
  8
0
 62
     0
 10
21.4809
 20
126.793
 30
0.0
 11
21.4809
 21
120.993
 31
0.0
  0
LINE
  8
0
 62
     0
 10
21.4809
 20
120.993
 30
0.0
 11
20.6816
 21
120.993
 31
0.0
  0
LINE
  8
0
 62
     0
 10
20.6816
 20
120.993
 30
0.0
 11
20.6816
 21
117.894
 31
0.0
  0
LINE
  8
0
 62
     0
 10
20.6816
 20
117.894
 30
0.0
 11
21.4809
 21
117.894
 31
0.0
  0
LINE
  8
0
 62
     0
 10
21.4809
 20
117.894
 30
0.0
 11
21.4809
 21
116.894
 31
0.0
  0
LINE
  8
0
 62
     0
 10
21.4809
 20
116.894
 30
0.0
 11
35.4817
 21
116.894
 31
0.0
  0
LINE
  8
0
 62
     0
 10
35.4817
 20
116.894
 30
0.0
 11
35.4817
 21
117.894
 31
0.0
  0
LINE
  8
0
 62
     0
 10
35.4817
 20
117.894
 30
0.0
 11
36.2811
 21
117.894
 31
0.0
  0
LINE
  8
0
 62
     0
 10
36.2811
 20
117.894
 30
0.0
 11
36.2811
 21
120.993
 31
0.0
  0
LINE
  8
0
 62
     0
 10
36.2811
 20
120.993
 30
0.0
 11
35.4817
 21
120.993
 31
0.0
  0
LINE
  8
0
 62
     0
 10
35.4817
 20
120.993
 30
0.0
 11
35.4817
 21
126.793
 31
0.0
  0
LINE
  8
0
 62
     0
 10
35.4817
 20
126.793
 30
0.0
 11
36.2811
 21
126.793
 31
0.0
  0
LINE
  8
0
 62
     0
 10
36.2811
 20
126.793
 30
0.0
 11
36.2811
 21
129.894
 31
0.0
  0
LINE
  8
0
 62
     0
 10
36.2811
 20
129.894
 30
0.0
 11
35.4817
 21
129.894
 31
0.0
  0
LINE
  8
0
 62
     0
 10
35.4817
 20
129.894
 30
0.0
 11
35.4817
 21
130.893
 31
0.0
  0
LINE
  8
0
 62
     0
 10
35.4817
 20
130.893
 30
0.0
 11
21.4809
 21
130.893
 31
0.0
  0
LINE
  8
0
 62
     0
 10
2.43086
 20
130.893
 30
0.0
 11
2.43086
 21
129.894
 31
0.0
  0
LINE
  8
0
 62
     0
 10
2.43086
 20
129.894
 30
0.0
 11
1.6316
 21
129.894
 31
0.0
  0
LINE
  8
0
 62
     0
 10
1.6316
 20
129.894
 30
0.0
 11
1.6316
 21
126.793
 31
0.0
  0
LINE
  8
0
 62
     0
 10
1.6316
 20
126.793
 30
0.0
 11
2.43086
 21
126.793
 31
0.0
  0
LINE
  8
0
 62
     0
 10
2.43086
 20
126.793
 30
0.0
 11
2.43086
 21
120.993
 31
0.0
  0
LINE
  8
0
 62
     0
 10
2.43086
 20
120.993
 30
0.0
 11
1.6316
 21
120.993
 31
0.0
  0
LINE
  8
0
 62
     0
 10
1.6316
 20
120.993
 30
0.0
 11
1.6316
 21
117.894
 31
0.0
  0
LINE
  8
0
 62
     0
 10
1.6316
 20
117.894
 30
0.0
 11
2.43086
 21
117.894
 31
0.0
  0
LINE
  8
0
 62
     0
 10
2.43086
 20
117.894
 30
0.0
 11
2.43086
 21
116.894
 31
0.0
  0
LINE
  8
0
 62
     0
 10
2.43086
 20
116.894
 30
0.0
 11
16.4317
 21
116.894
 31
0.0
  0
LINE
  8
0
 62
     0
 10
16.4317
 20
116.894
 30
0.0
 11
16.4317
 21
117.894
 31
0.0
  0
LINE
  8
0
 62
     0
 10
16.4317
 20
117.894
 30
0.0
 11
17.231
 21
117.894
 31
0.0
  0
LINE
  8
0
 62
     0
 10
17.231
 20
117.894
 30
0.0
 11
17.231
 21
120.993
 31
0.0
  0
LINE
  8
0
 62
     0
 10
17.231
 20
120.993
 30
0.0
 11
16.4317
 21
120.993
 31
0.0
  0
LINE
  8
0
 62
     0
 10
16.4317
 20
120.993
 30
0.0
 11
16.4317
 21
126.793
 31
0.0
  0
LINE
  8
0
 62
     0
 10
16.4317
 20
126.793
 30
0.0
 11
17.231
 21
126.793
 31
0.0
  0
LINE
  8
0
 62
     0
 10
17.231
 20
126.793
 30
0.0
 11
17.231
 21
129.894
 31
0.0
  0
LINE
  8
0
 62
     0
 10
17.231
 20
129.894
 30
0.0
 11
16.4317
 21
129.894
 31
0.0
  0
LINE
  8
0
 62
     0
 10
16.4317
 20
129.894
 30
0.0
 11
16.4317
 21
130.893
 31
0.0
  0
LINE
  8
0
 62
     0
 10
16.4317
 20
130.893
 30
0.0
 11
2.43086
 21
130.893
 31
0.0
  0
ENDSEC
  0
EOF
